<svg width="448" height="448" viewBox="0 0 448 448" fill="none" xmlns="http://www.w3.org/2000/svg">
<mask id="mask0_985_1197" style="mask-type:alpha" maskUnits="userSpaceOnUse" x="0" y="0" width="448" height="448">
<circle cx="224" cy="224" r="224" fill="#C70000"/>
</mask>
<g mask="url(#mask0_985_1197)">
<circle cx="224" cy="224" r="224" fill="#9FFFA9"/>
<path fill-rule="evenodd" clip-rule="evenodd" d="M368.599 488.017C367.99 476.7 367.242 465.392 366.346 454.094C364.562 431.59 362.225 409.068 358.337 386.822C354.501 364.873 349.132 343.53 341.397 322.614C337.809 312.911 333.923 304.633 328.286 295.91C322.955 287.662 316.153 282.074 307.679 277.095C300.043 272.61 291.173 264.827 283.85 259.803C280.792 257.707 274.502 257.846 272.406 254.744C269.66 250.682 271.44 244.465 268.673 240.416C265.509 235.787 261.077 232.191 256.08 229.578C250.625 225.883 244.2 224.21 237.759 224.441C228.26 223.864 218.693 226.89 212.594 234.624C209.551 238.484 207.774 242.938 207.528 247.869C207.464 249.152 207.876 250.163 208.554 250.893C208.152 251.431 207.752 251.969 207.354 252.51C206.107 250.662 203.191 249.68 201.248 251.075C194.891 255.639 188.021 259.269 180.77 261.929C179.074 261.126 177.02 261.498 175.567 262.809C174.977 263.341 174.351 263.796 173.698 264.182C171.009 264.911 168.279 265.52 165.508 265.991C164.641 266.138 163.906 266.63 163.349 267.294C162.523 266.522 161.388 266.151 160.121 266.635C145.487 272.215 131.667 280.885 121.163 292.63C109.526 305.642 103.413 321.828 98.7601 338.411C93.7227 356.362 90.5036 374.76 87.7997 393.189C85.06 411.862 82.3616 430.608 80.4766 449.389C79.4157 459.958 79.0111 470.623 79.4913 481.238C79.7307 486.543 80.2151 491.832 80.9866 497.086C81.1664 498.316 81.3546 499.732 81.6576 501.145C80.7365 500.966 79.6394 501.745 79.8261 502.992C81.1263 511.676 91.6217 514.206 98.8601 515.205C110.7 516.841 122.602 517.748 134.556 517.818C146.303 517.886 158.048 517.132 169.771 516.457C181.79 515.764 193.808 515.068 205.826 514.363C253.977 511.539 302.132 508.746 350.283 505.921C354.683 505.663 359.706 505.313 363.474 502.761C368.639 499.261 368.905 493.7 368.599 488.017Z" fill="white"/>
<path fill-rule="evenodd" clip-rule="evenodd" d="M133.861 390.883C133.694 390.57 134.082 390.288 134.339 390.514C140.185 395.646 143.245 403.887 143.887 411.505C144.567 419.583 143.603 427.947 143.235 436.021C142.825 445.015 142.456 454.013 141.956 463.003C141.448 472.124 140.9 481.242 140.431 490.364L139.376 510.886C139.263 513.073 139.507 515.763 138.667 517.804C137.367 520.968 133.505 520.478 132.693 517.834L132.668 517.747L132.594 517.804C131.878 515.42 132.414 512.59 132.535 510.126L133.641 487.704C134.422 471.856 135.119 456.008 135.958 440.162L136.244 434.881C136.636 427.771 136.937 420.679 137.179 413.571L137.257 411.201C137.486 404.064 137.304 397.327 133.861 390.883ZM275.565 259.319C278.821 259.01 281.281 260.09 284.237 261.228C285.525 261.723 286.745 262.296 287.98 262.888C289.527 263.63 290.522 264.942 291.475 266.329L291.984 267.077C295.951 272.891 298.619 279.598 301.63 285.928C305.151 293.332 308.708 300.72 312.155 308.16L313.856 311.825C314.706 313.658 315.554 315.492 316.389 317.331L317.832 320.533C319.282 323.78 320.582 327.215 318.516 330.565C316.594 333.68 313.188 336.091 310.491 338.499C308.241 340.508 305.991 342.517 303.74 344.526C308.393 349.187 311.517 355.057 313.353 361.351C315.961 360.264 319.145 360.055 321.843 359.585C325.619 358.926 326.081 364.645 322.518 364.575C319.886 364.523 316.799 364.792 314.099 364.237C314.568 366.306 314.909 368.405 315.125 370.511C316.259 381.545 313.781 392.644 311.195 403.32L310.982 404.197C308.175 415.753 305.513 427.339 303.131 438.99C300.744 450.667 298.597 462.393 296.691 474.157C294.751 486.132 293.378 498.173 291.903 510.211C291.679 512.033 290.533 513.594 288.521 513.594C286.844 513.594 284.928 512.029 285.139 510.211C286.661 497.102 288.82 484.061 290.965 471.041C294.66 448.62 299.309 426.394 304.659 404.313L305.593 400.468C308 390.495 310.184 380.219 308.976 369.932C307.993 361.556 304.492 352.625 297.573 347.422L297.362 347.266C295.746 346.08 295.124 343.812 296.716 342.251C297.729 341.257 298.743 340.265 299.758 339.273L305.849 333.324L307.077 332.122C308.101 331.122 309.13 330.128 310.189 329.165C310.831 328.582 312.569 327.471 312.696 326.512C312.779 325.886 312.039 324.787 311.738 324.211L310.364 321.435C309.583 319.852 308.826 318.258 308.064 316.666C306.484 313.368 304.882 310.08 303.337 306.766L294.053 286.865C291.433 281.25 289.1 275.323 285.676 270.133L285.001 269.121C284.437 268.269 283.94 267.449 283.583 266.407C283.241 265.405 282.811 264.304 282.178 263.449C280.695 261.441 277.861 260.302 275.489 259.882C275.146 259.821 275.27 259.347 275.565 259.319ZM204.16 254.092C204.366 254.092 204.398 254.386 204.207 254.444C201.346 255.304 198.612 256.693 196.381 258.698C195.313 259.657 194.239 260.746 193.58 262.038C193.328 262.532 193.188 263.054 193.086 263.595L193.053 263.776C192.883 264.754 192.64 265.299 192.143 266.082L192.058 266.214C189.223 270.594 187.236 275.459 185.419 280.33L181.463 290.951L177.509 301.573C176.236 304.995 174.961 308.418 173.687 311.84C172.983 313.73 172.259 315.611 171.536 317.493C171.223 318.309 170.886 319.118 170.6 319.943C170.56 320.056 170.435 320.735 170.341 320.9L170.373 320.956C171.171 322.298 173.297 323.419 174.503 324.394L178.654 327.751C181.613 330.145 184.649 332.472 187.52 334.973C189.323 336.544 188.201 339.356 186.19 340.011C182.82 341.11 179.518 342.424 176.199 343.667C174.858 344.169 173.462 344.605 172.136 345.159L171.33 345.508C171.015 345.649 171.166 345.648 171.179 346.23C171.191 346.84 171.364 347.476 171.463 348.075C172.582 354.838 173.767 361.59 175.018 368.33C179.443 392.164 184.729 415.823 190.759 439.301C193.804 451.157 197.071 462.955 200.183 474.794C203.287 486.601 207.372 498.239 211.273 509.803C212.374 513.064 207.204 514.468 206.131 511.221C201.636 497.62 197.523 483.901 193.277 470.224C185.731 445.921 179.785 421.09 174.526 396.199C171.92 383.863 169.536 371.479 167.377 359.056C166.968 356.705 166.567 354.351 166.175 351.997L165.602 348.533C165.21 346.065 164.987 343.493 166.905 341.54C168.778 339.633 171.993 338.957 174.457 338.063L174.636 337.997C176.205 337.412 177.784 336.848 179.358 336.266C177.04 334.441 174.751 332.575 172.438 330.75C170.573 329.279 168.679 327.837 166.84 326.331C165.324 325.089 164.088 323.495 163.93 321.476C163.769 319.412 164.653 317.496 165.366 315.604L165.435 315.42C166.135 313.531 166.837 311.642 167.557 309.759L172.012 298.104C174.843 290.698 177.554 283.233 180.532 275.884C181.71 272.976 182.993 270.114 184.51 267.365C185.242 266.04 186.026 264.743 186.879 263.492C187.834 262.089 188.701 261.405 190.181 260.631C192.547 259.393 194.404 257.318 196.78 256.042C199.113 254.789 201.512 254.121 204.16 254.092ZM211.842 240.879C211.933 240.724 212.173 240.793 212.176 240.97C212.237 244.65 211.363 248.412 210.825 252.051C210.285 255.703 210.112 259.558 209.33 263.172C209.314 263.34 209.282 263.506 209.236 263.669L209.198 263.793C208.869 264.805 208.011 265.663 206.958 265.931C207.289 267.766 207.601 269.603 207.863 271.451C208.314 274.627 208.725 277.807 209.129 280.988L209.613 284.806C210.07 288.404 210.515 292.004 210.954 295.604C212.071 296.071 213.212 296.457 214.379 296.791C217.069 297.561 219.823 297.874 222.598 298.147C228.25 298.701 233.945 298.958 239.617 299.273L240.832 299.341C247.208 299.707 253.62 299.772 259.98 299.117C263.134 298.793 266.263 298.248 269.339 297.476C270.901 297.084 272.42 296.498 273.98 296.115C274.497 295.988 274.96 295.694 275.478 295.381C275.708 295.09 276.031 294.87 276.452 294.785L276.566 294.765L276.679 294.749L276.718 294.731L276.715 294.743C277.034 294.7 277.337 294.7 277.623 294.739C277.736 291.933 277.86 289.126 278.014 286.32C278.429 278.783 279.575 270.921 278.046 263.449C277.994 263.198 278.336 263.11 278.425 263.345C281.426 271.254 281.089 279.902 281.24 288.227C281.388 296.367 281.298 304.514 281.258 312.656C281.841 312.904 282.361 313.241 282.773 313.713C283.595 314.656 283.832 316.296 282.773 317.206C282.303 317.61 281.784 317.89 281.232 318.085C281.203 325.158 281.153 332.233 281.082 339.307C282.427 340.346 282.552 342.813 281.031 343.838C280.778 366.747 280.362 389.656 280.017 412.561L279.294 460.616C279.198 467.019 279.038 473.421 278.981 479.823L279.026 479.841L279.186 479.916C279.456 480.042 279.857 480.247 279.94 480.456C279.962 480.511 279.967 480.549 279.965 480.577C280.406 480.639 280.843 480.847 281.221 481.206C282.155 482.094 281.965 483.431 281.221 484.335L281.022 484.577C280.559 485.14 279.678 485.357 278.959 485.243C278.966 489.238 278.992 493.235 278.979 497.23C278.975 498.451 278.956 499.671 278.935 500.892L278.885 503.818C278.852 505.488 278.704 507.61 276.994 508.36C275.065 509.207 273.335 508.513 272.554 506.554C272.343 506.023 272.388 505.528 272.465 505.004C272.441 504.215 272.318 503.301 272.333 502.569L272.397 499.519C272.407 499.048 272.426 498.578 272.44 498.108L272.384 498.113C265.53 498.446 258.628 498.284 251.763 498.28L248.71 498.284C246.162 498.286 243.609 498.273 241.065 498.175L240.112 498.135C238.208 498.045 236.205 498.017 234.23 497.846C234.482 499.874 234.717 501.903 234.927 503.934C235.125 505.859 233.138 507.496 231.366 507.496C229.261 507.496 228.057 505.841 227.805 503.934C226.615 494.938 226.129 485.858 224.992 476.857C223.974 468.794 223.092 460.714 222.195 452.636L221.895 449.944C218.612 420.548 215.424 391.141 212.376 361.72L210.956 347.966C209.522 334.104 208.08 320.24 206.864 306.358C206.169 298.421 205.528 290.482 204.925 282.537C204.482 276.701 204.204 270.896 204.023 265.071C203.31 264.337 202.952 263.265 203.268 262.157C203.453 261.511 203.668 260.868 203.895 260.227C203.88 259.596 203.866 258.966 203.853 258.335C203.842 257.738 204.448 257.43 204.933 257.529C205.815 255.393 206.786 253.276 207.597 251.16C208.908 247.736 209.989 244.047 211.842 240.879ZM138.589 277.884C152.301 269.288 168.622 263.102 184.969 263.768C185.341 263.784 185.446 264.35 185.06 264.436C176.34 266.384 167.525 268.756 159.27 272.209C150.991 275.672 143.119 280.334 136.107 285.938C123.171 296.276 113.116 309.723 106.496 324.882C102.617 333.761 99.8992 343.136 97.5255 352.513C95.0137 362.438 92.9436 372.47 91.2223 382.562C87.8226 402.497 85.8433 422.651 84.7901 442.84C83.7186 463.377 84.1603 483.928 83.396 504.468C83.264 508.027 78.1793 507.958 77.9208 504.468C76.1893 481.116 77.1486 457.39 78.75 434.054C80.1899 413.076 82.7043 392.141 86.7534 371.501L87.1061 369.712C90.8913 350.615 95.457 331.056 104.608 313.761C112.42 298.997 124.482 286.729 138.589 277.884ZM328.994 369.153C329.066 368.949 329.336 368.951 329.408 369.153C330.971 373.531 331.027 378.47 331.443 383.084L331.475 383.438C331.874 387.647 332.174 391.86 332.453 396.077L332.557 397.659C333.676 414.863 335.076 432.048 337.185 449.161C339.286 466.21 342.127 483.14 345.2 500.036C345.542 501.917 344.709 503.834 342.737 504.376C340.999 504.853 338.767 503.782 338.4 501.912C336.492 492.214 334.95 482.502 333.574 472.72C331.151 455.494 329.343 438.189 328.181 420.833C327.597 412.116 327.238 403.402 327.095 394.666C327.03 390.613 327.135 386.55 327.351 382.501L327.402 381.566C327.641 377.428 327.616 373.1 328.994 369.153ZM180.833 478.732C181.016 478.633 181.243 478.837 181.127 479.026C178.472 483.342 174.88 487.064 171.409 490.733C167.78 494.567 164.24 498.517 160.538 502.277C157.863 504.992 153.559 500.612 156.383 498.12C160.352 494.617 164.501 491.289 168.542 487.864L170.308 486.366C173.621 483.566 177.032 480.791 180.833 478.732ZM306.935 476.57C306.737 476.192 307.19 475.886 307.498 476.136C309.639 477.878 311.559 479.957 313.626 481.795C315.674 483.616 317.799 485.315 319.981 486.971C322.173 488.635 324.412 490.232 326.712 491.743C328.619 492.996 330.585 494 332.583 495.041C333.508 495.16 334.364 495.614 335.05 496.475C336.134 497.837 336.249 500.405 334.746 501.587L334.476 501.799C332.721 503.179 330.638 503.347 328.91 501.799C326.982 500.071 325.158 498.17 323.306 496.344L322.75 495.799C320.759 493.863 318.817 491.865 316.987 489.778L315.329 487.891C312.254 484.384 309.054 480.603 306.935 476.57ZM297.071 274.35C296.714 274.114 296.934 273.478 297.374 273.63L298.18 273.909C301.55 275.08 305.019 276.38 308.078 278.183C311.366 280.121 314.402 282.43 317.302 284.907C323.306 290.034 328.414 296.338 332.754 302.909C341.464 316.096 346.85 331.197 351.199 346.307C355.836 362.418 359.406 378.875 362.321 395.379C365.283 412.152 367.568 429.076 369.069 446.043C369.809 454.401 370.306 462.764 370.556 471.15C370.684 475.465 370.68 479.776 370.644 484.093C370.635 485.202 370.642 486.312 370.655 487.421L370.697 490.75C370.72 492.854 370.972 495.066 370.472 497.122C369.667 500.432 364.197 499.814 364.376 496.432C364.211 495.306 364.205 494.143 364.248 492.977C364.222 492.827 364.194 492.674 364.162 492.518C364.073 492.071 364.149 491.657 364.324 491.301C364.353 490.742 364.378 490.186 364.387 489.64C364.423 487.418 364.421 485.205 364.36 482.983C364.23 478.299 364.044 473.615 363.856 468.933C363.48 459.577 362.957 450.216 362.199 440.883C359.561 408.396 353.991 375.724 344.635 344.47C340.29 329.956 334.299 315.708 325.708 303.166C321.895 297.599 317.592 292.456 312.822 287.683C308.023 282.88 302.733 278.102 297.071 274.35ZM232.333 483.775L232.982 488.466C233.306 490.812 233.627 493.159 233.931 495.507C236.001 495.224 238.118 495.105 240.112 494.928C243.603 494.619 247.118 494.469 250.619 494.325C257.86 494.026 265.136 493.508 272.384 493.544C272.458 493.544 272.528 493.549 272.599 493.555L272.958 484.299L267.866 484.291C263.552 484.284 259.238 484.247 254.924 484.21C251.038 484.177 247.151 484.171 243.266 484.09L241.601 484.051C238.655 483.971 235.402 484.135 232.333 483.775ZM273.385 470.339C273.178 470.363 272.966 470.384 272.741 470.393C271.733 470.436 270.716 470.406 269.707 470.415C267.558 470.434 265.409 470.448 263.26 470.448C258.961 470.447 254.663 470.473 250.366 470.525C245.941 470.579 241.52 470.655 237.096 470.664C234.952 470.668 232.815 470.611 230.672 470.551C231.018 473.598 231.381 476.642 231.781 479.679C235.109 479.23 238.688 479.456 241.94 479.425L242.363 479.42C246.802 479.344 251.245 479.4 255.685 479.405C260.253 479.411 264.82 479.425 269.389 479.463L273.142 479.494L273.149 479.305C273.259 476.319 273.33 473.33 273.385 470.339ZM229.021 455.764C229.437 459.36 229.827 462.962 230.225 466.564C230.49 466.523 230.758 466.488 231.031 466.459C233.178 466.234 235.32 466.042 237.475 465.908C241.769 465.642 246.064 465.502 250.366 465.386C254.789 465.267 259.214 465.177 263.639 465.114C265.789 465.084 267.937 465.087 270.086 465.102C271.095 465.109 272.114 465.077 273.121 465.144C273.24 465.153 273.355 465.165 273.469 465.178L273.545 459.771C273.558 458.87 273.571 457.97 273.586 457.069C270.263 457.274 266.885 457.196 263.565 457.196L262.8 457.198C258.628 457.217 254.454 457.16 250.283 457.073C245.98 456.984 241.685 456.843 237.389 456.567C235.649 456.456 233.921 456.308 232.191 456.117L231.325 456.018C230.572 455.929 229.796 455.857 229.021 455.764ZM273.929 440.506C265.926 441.142 257.967 441.407 249.943 441.486L248.739 441.496C241.649 441.55 234.5 441.843 227.393 441.655C227.818 445.34 228.242 449.026 228.669 452.711C229.686 452.663 230.709 452.663 231.704 452.627C233.727 452.554 235.744 452.536 237.769 452.531C241.94 452.522 246.111 452.558 250.283 452.55C254.582 452.54 258.88 452.468 263.179 452.387C266.663 452.322 270.185 452.059 273.68 452.069L273.929 440.506ZM274.267 424.782C273.34 425.09 272.245 425.11 271.045 425.165L267.947 425.32C266.511 425.39 265.075 425.456 263.639 425.509C258.851 425.684 254.064 425.848 249.276 426C244.369 426.156 239.439 426.247 234.532 426.092C232.128 426.016 229.745 425.89 227.348 425.689C226.756 425.64 226.152 425.607 225.547 425.565C226.105 430.448 226.665 435.33 227.227 440.212C234.3 439.344 241.427 438.803 248.492 437.905L254.879 437.089C261.264 436.274 267.644 435.474 274.052 434.8L274.267 424.782ZM274.608 408.885C273.248 409.221 271.697 409.204 270.39 409.287L270.148 409.304C267.673 409.491 265.191 409.585 262.709 409.647C257.846 409.766 252.98 409.826 248.115 409.856L245.19 409.874C241.29 409.897 237.392 409.907 233.491 409.816C230.989 409.758 228.492 409.635 225.992 409.51C225.243 409.472 224.477 409.448 223.709 409.409C224.232 414.032 224.76 418.654 225.287 423.276C226.108 423.146 226.933 423.046 227.72 422.914C229.735 422.573 231.747 422.301 233.776 422.058C238.172 421.531 242.591 421.152 247.008 420.832C251.542 420.503 256.08 420.225 260.615 419.907L263.827 419.68C264.898 419.606 265.968 419.534 267.039 419.468C268.869 419.356 270.995 419.483 272.809 419.084C273.301 418.88 273.846 418.833 274.392 418.95L274.608 408.885ZM275.02 390.277C274.549 390.875 273.846 391.189 273.008 391.297C268.641 391.864 264.162 391.955 259.759 392.222L258.982 392.271C254.435 392.571 249.886 392.806 245.336 393.048C240.661 393.296 235.988 393.498 231.31 393.661C229.324 393.73 227.328 393.739 225.338 393.713L224.486 393.7C223.67 393.686 222.814 393.688 221.957 393.661C222.431 397.983 222.91 402.306 223.396 406.627C224.27 406.532 225.144 406.46 225.992 406.37C228.491 406.106 230.987 405.845 233.491 405.647C238.237 405.273 242.986 405.048 247.741 404.813C252.605 404.572 257.472 404.411 262.337 404.184C264.696 404.074 267.054 403.937 269.406 403.72C271.054 403.568 273.012 403.007 274.732 403.213C274.826 398.901 274.923 394.589 275.02 390.277ZM275.404 373.608C275.329 373.723 275.242 373.835 275.136 373.939C273.214 375.839 270.845 375.692 268.297 375.891L268.141 375.904C265.644 376.114 263.146 376.314 260.646 376.494C255.65 376.855 250.643 377.107 245.639 377.332C240.519 377.563 235.365 377.721 230.239 377.616C226.956 377.549 223.518 377.561 220.17 377.241C220.684 382.002 221.202 386.763 221.723 391.523C222.664 391.345 223.612 391.209 224.509 391.068C226.771 390.712 229.035 390.354 231.31 390.092C235.855 389.569 240.402 389.079 244.957 388.637C248.852 388.259 252.745 387.876 256.643 387.531L258.982 387.329C263.633 386.937 268.342 386.292 273.008 386.196C273.777 386.181 274.646 386.599 275.087 387.26C275.19 382.709 275.297 378.158 275.404 373.608ZM275.727 360.113C274.539 360.258 273.259 360.175 272.164 360.211C269.393 360.302 266.621 360.386 263.85 360.468L247.221 360.959C241.56 361.126 235.878 361.251 230.214 361.171C227.723 361.136 225.221 361.131 222.73 360.996L221.9 360.946C220.875 360.877 219.617 360.868 218.389 360.743L219.839 374.18C223.171 373.699 226.605 373.519 229.909 373.236L230.614 373.174C235.487 372.73 240.383 372.436 245.264 372.105C250.271 371.766 255.271 371.355 260.271 370.933C262.771 370.723 265.269 370.514 267.767 370.284L268.075 370.254C270.434 370.007 272.653 369.483 274.742 370.874C275.048 371.077 275.287 371.349 275.451 371.654C275.542 367.807 275.631 363.96 275.727 360.113ZM276.114 344.431C265.987 344.839 255.859 345.148 245.724 345.284C240.019 345.361 234.322 345.307 228.618 345.188C226.145 345.136 223.651 345.017 221.179 344.828L220.254 344.753C219.079 344.655 217.844 344.583 216.615 344.464C217.123 349.084 217.627 353.705 218.127 358.327C219.336 358.102 220.6 357.998 221.659 357.863L221.9 357.831C224.533 357.468 227.191 357.257 229.836 357.024C234.988 356.57 240.166 356.278 245.331 356.029C250.621 355.774 255.913 355.558 261.204 355.323L266.495 355.086C267.377 355.047 268.258 355.009 269.14 354.972C270.4 354.918 271.66 354.868 272.92 354.815C273.541 354.79 274.187 354.705 274.809 354.737L274.986 354.714C275.068 354.703 275.14 354.695 275.206 354.688C275.376 354.559 275.558 354.452 275.751 354.371L275.868 354.325L276.114 344.431ZM214.955 329.57C215.425 333.729 215.89 337.889 216.349 342.05C217.793 341.885 219.255 341.794 220.634 341.669C223.415 341.42 226.209 341.202 228.998 341.073L234.573 340.814C238.289 340.642 242.005 340.476 245.724 340.34C255.902 339.969 266.079 339.543 276.251 339.023C276.323 336.202 276.397 333.38 276.472 330.558C275.984 331.081 275.278 331.425 274.352 331.423C263.673 331.394 252.986 331.456 242.308 331.281C236.964 331.192 231.625 331.063 226.287 330.789C223.675 330.655 221.048 330.381 218.455 330.022C217.35 329.869 216.14 329.76 214.955 329.57ZM213.246 314.749C213.748 319.01 214.24 323.271 214.724 327.534C216.051 327.297 217.421 327.171 218.658 327.003C221.316 326.641 223.991 326.353 226.668 326.202C231.878 325.907 237.091 325.759 242.308 325.648C252.985 325.421 263.673 325.423 274.352 325.338C275.355 325.33 276.1 325.727 276.589 326.32C276.663 323.659 276.741 320.999 276.821 318.338C275.79 318.229 274.767 318.075 273.821 318.009C270.913 317.806 268.003 317.62 265.092 317.453C259.018 317.104 252.938 316.807 246.86 316.542C240.78 316.278 234.698 316.019 228.616 315.794L225.957 315.697C221.727 315.539 217.426 315.34 213.246 314.749ZM211.333 298.704C211.856 303.019 212.37 307.334 212.884 311.651L213.04 312.987C218.126 311.997 223.487 311.708 228.616 311.49C234.699 311.231 240.772 311.097 246.86 311.116C252.942 311.134 259.015 311.278 265.092 311.53C268.129 311.655 271.165 311.8 274.2 311.965C275.035 312.01 276.013 311.986 277.02 312C277.042 311.322 277.06 310.644 277.084 309.966C277.176 307.219 277.267 304.472 277.361 301.725C275.308 302.779 272.639 303.205 270.576 303.654L270.341 303.706C266.935 304.472 263.457 304.968 259.98 305.271C253.152 305.867 246.254 305.644 239.432 305.067L238.238 304.965C232.248 304.445 226.038 303.787 220.231 302.304C217.465 301.598 214.605 300.609 212.127 299.177C211.869 299.028 211.603 298.87 211.333 298.704ZM269.008 247.426C269.067 247.193 269.417 247.14 269.532 247.358C270.338 248.891 270.638 250.73 271.198 252.373C271.801 254.139 272.363 255.918 273.028 257.662C274.417 261.307 276.056 264.809 278.01 268.185C279.945 271.528 274.527 273.915 273.103 270.255C271.633 266.478 270.425 262.573 269.694 258.582C269.337 256.634 269.019 254.66 268.916 252.682C268.827 250.982 268.588 249.084 269.008 247.426Z" fill="black"/>
<path fill-rule="evenodd" clip-rule="evenodd" d="M308.553 173.273C308.401 164.718 308.233 155.992 306.962 147.52C305.719 139.238 302.3 131.751 296.424 125.737C283.944 112.962 265.854 109.841 249.015 106.982L220.225 102.093C211.441 100.601 202.071 98.2176 193.197 100.332C188.824 101.375 185.11 103.796 181.716 106.66C178.445 109.421 174.928 112.386 172.711 116.101C170.49 119.821 169.727 124.169 169.005 128.376C168.19 133.12 167.558 137.9 167.109 142.692C166.208 152.293 166.085 161.965 166.738 171.586C167.055 176.252 167.558 180.905 168.201 185.537C168.52 187.834 168.88 190.125 169.287 192.409C169.407 193.082 169.498 193.827 169.621 194.581C168.713 197.164 168.197 199.84 168.239 202.505C168.361 210.353 174.983 215.294 181.659 217.947C185.53 219.485 189.576 220.531 193.38 222.249C197.38 224.057 200.104 226.987 202.839 230.329C208.056 236.705 213.944 242.434 220.667 247.215C234.92 257.35 252.973 262.144 270.267 258.505C274.416 257.632 278.602 256.277 282.332 254.234C286.27 252.078 289.231 248.953 291.718 245.258C296.335 238.399 299.646 230.675 302.151 222.816C304.706 214.799 306.52 206.767 307.509 198.407C308.494 190.074 308.702 181.657 308.553 173.273Z" fill="white"/>
<path fill-rule="evenodd" clip-rule="evenodd" d="M216.682 72.2919C228.596 70.6525 245.04 75.9809 250.973 86.7248C279.3 80.0441 315.028 79.8253 338.375 102.065C362.737 128.446 332.137 163.23 311.847 171.072C313.324 178.255 311.021 224.266 294.722 244.789C281.788 262.179 251.666 270.204 237.728 249.434L237.619 249.262C236.126 246.864 237.412 246.941 238.945 248.725C252.594 260.732 271.151 260.937 285.451 248.266C312.252 225.104 309.488 168.315 296.735 135.461C260.421 131.471 221.54 142.482 196.458 169.828L198.154 180.043C198.443 181.783 198.771 183.522 199.022 185.268C199.182 186.387 199.2 187.5 198.425 188.405C195.866 191.396 191.554 186.902 188.006 185.115C186.958 184.968 185.909 184.911 184.88 184.983C167.832 187.18 171.191 220.262 189.927 214.464C191.502 213.483 192.854 213.782 193.465 215.206C197.931 219.298 200.875 226.596 208.295 233.626C210.913 236.263 213.296 238.469 216.24 240.584C217.97 242.334 223.189 244.118 221.534 247.113C218.406 253.926 199.956 232.524 196.694 226.605C186.474 230.642 175.148 229.271 164.557 228.284C108.682 225.378 116.142 166.457 161.94 129.257C170.562 122.908 180.073 117.729 189.961 113.743C191.31 113.199 190.721 110.982 189.352 111.533C182.809 114.171 176.432 117.311 170.352 120.944L170.343 118.772C170.334 115.113 170.392 111.304 171.027 107.961C171.344 105.644 171.879 103.17 172.701 101.309C173.717 95.602 189.641 76.0145 216.682 72.2919ZM184.134 192.578C184.997 191.759 186.607 192.736 187.375 192.712C189.339 192.981 191.205 193.81 192.66 194.835C193.621 195.373 194.295 195.879 194.857 196.344L194.873 196.34C194.868 196.34 194.862 196.343 194.857 196.344L194.911 196.381C195.731 196.963 198.73 200.243 196.835 199.361C196.694 199.177 196.549 199.001 196.403 198.828C196.388 198.852 196.366 198.875 196.34 198.898L196.446 199.056C198.057 201.479 195.276 198.926 194.848 198.248C194.828 198.264 194.805 198.275 194.783 198.287L195.34 198.965C195.418 199.061 195.479 199.138 195.53 199.203L195.647 199.317C197.509 201.148 197.568 202.796 195.404 200.089C195.489 200.216 195.558 200.351 195.567 200.471L195.695 200.635C197.394 202.824 196.012 202.047 195.168 201.112L195.098 201.031L195.112 201.053C195.897 202.263 194.339 201.414 194.064 200.767L194.053 200.737C193.753 200.493 193.568 200.218 193.505 200.148L193.493 200.137C192.032 198.64 189.915 197.373 188.117 196.798C187.856 196.748 187.592 196.708 187.326 196.68C186.245 196.439 185.151 196.273 184.047 196.184C183.911 196.168 183.774 196.069 183.672 195.94C182.002 195.884 182.517 195.199 183.21 195.072L183.222 195.07L183.085 195.058C182.013 194.953 181.281 194.568 182.365 194.332L182.502 194.305C182.485 194.279 182.47 194.252 182.456 194.226C181.527 194.124 182.133 193.221 182.649 193.44C182.432 192.73 183.423 193.084 183.546 192.979C183.641 192.874 183.758 192.782 183.826 192.777C184.124 192.566 183.979 192.585 184.134 192.578ZM189.814 181.097L189.597 181.224C189.421 181.327 189.24 181.395 189.058 181.435C189.315 181.544 189.568 181.662 189.819 181.789C189.815 181.634 189.812 181.481 189.812 181.327L189.814 181.097Z" fill="black"/>
<path fill-rule="evenodd" clip-rule="evenodd" d="M274.757 227.869C271.945 228.683 268.926 228.756 266.06 227.915C263.46 227.151 260.79 225.472 258.877 223.249C257.177 221.274 256.076 218.875 256.12 216.314C256.124 216.021 256.229 215.777 256.39 215.587C256.563 215.383 256.805 215.243 257.064 215.182C257.33 215.12 257.612 215.142 257.852 215.251C258.069 215.35 258.255 215.517 258.371 215.762C258.665 216.149 258.958 216.529 259.252 216.9C261.617 219.82 263.907 222.003 267.462 222.786C269.391 223.211 271.318 223.022 273.086 222.374C274.978 221.68 276.688 220.46 278.029 218.899C278.635 218.194 279.35 217.906 280.049 217.901C280.842 217.895 281.625 218.264 282.215 218.852C282.795 219.431 283.184 220.218 283.219 221.04C283.25 221.763 283.014 222.517 282.388 223.19C280.324 225.406 277.65 227.03 274.757 227.869ZM274.67 191.287C277.553 193.04 281.945 197.128 278.844 201.473C275.194 205.305 269.938 200.911 267.348 198.925C264.947 197.385 262.249 201.345 264.477 203.143C283.191 217.004 290.785 191.746 276.128 189.226C274.514 188.949 273.915 190.745 274.67 191.287ZM247.705 183.574C246.778 182.982 245.688 182.778 244.48 183.328C243.537 183.757 241.881 185.189 240.729 187.071C239.941 188.358 239.382 189.868 239.498 191.442C239.525 191.807 239.39 192.076 239.177 192.275C239.009 192.433 238.766 192.548 238.481 192.584C238.239 192.615 237.968 192.588 237.748 192.519C237.328 192.388 237.107 192.116 237.023 191.894C236.216 189.75 236.564 187.359 237.468 185.201C238.688 182.289 240.904 179.85 242.356 179.064C244.84 177.718 247.77 177.656 250.258 179.027C252.376 180.194 253.7 182.079 255.017 184C255.297 184.408 255.575 184.813 255.862 185.211C256.437 186.009 256.495 186.801 256.272 187.479C256.025 188.231 255.395 188.866 254.608 189.198C253.88 189.504 253.036 189.548 252.289 189.232C251.657 188.966 251.078 188.447 250.711 187.566C250.094 186.082 249.065 184.445 247.705 183.574ZM294.759 186.876C294.125 187.206 293.628 187.306 292.925 187.095C292.535 186.978 292.151 186.754 291.849 186.453C291.551 186.154 291.336 185.783 291.252 185.371C291.046 184.354 290.49 183.402 289.698 182.782C289.02 182.252 288.165 181.971 287.217 182.129C286.194 182.3 285.219 182.956 284.548 183.73C284.323 183.989 284.147 184.284 283.971 184.576C283.64 185.122 283.318 185.63 282.862 186.031C282.689 186.184 282.428 186.29 282.176 186.29C282.073 186.29 281.969 186.273 281.87 186.242C280.852 185.219 280.656 184.444 280.689 183.674C280.723 182.867 281.041 182.05 281.555 181.288C282.76 179.5 285.049 178.034 286.593 177.702C288.708 177.248 290.809 177.793 292.493 178.975C294.225 180.191 295.509 182.079 295.91 184.206C296.006 184.719 295.965 185.272 295.77 185.751C295.579 186.22 295.247 186.621 294.759 186.876ZM252.369 164.512C251.1 165.749 249.598 165.941 248.078 166.111C247.233 166.207 246.559 166.284 245.896 166.433C244.073 166.845 242.27 167.465 240.626 168.358C238.907 169.292 237.034 170.418 235.687 171.86C235.366 172.203 235.064 172.564 234.762 172.925C234.486 173.254 234.22 173.571 233.94 173.876C233.619 174.227 233.313 174.595 233.009 174.962C232.822 175.271 232.784 175.347 232.747 175.427C232.69 175.546 232.623 175.679 232.548 175.822C232.444 176.018 232.323 176.232 232.196 176.426C231.985 176.782 231.871 176.88 231.773 176.923C231.61 176.996 231.456 177.031 231.307 177.012C231.166 176.994 231.034 176.927 230.904 176.816C230.252 176.265 230.06 175.362 230.079 174.402C230.109 172.946 230.646 171.334 231.141 170.343C232.292 168.04 233.888 165.647 235.807 163.928C237.996 161.966 240.392 160.481 243.143 159.458C244.853 158.822 246.833 158.238 248.696 158.311C250.037 158.364 251.317 158.763 252.374 159.759C253.023 160.37 253.335 161.24 253.335 162.109C253.335 162.995 253.011 163.886 252.369 164.512ZM297.341 175.84C297.26 175.973 297.148 176.064 297.024 176.119C296.894 176.176 296.748 176.193 296.609 176.169C296.47 176.146 296.337 176.083 296.233 175.986C296.132 175.894 296.056 175.772 296.022 175.621C295.179 171.919 293.543 169.164 290.05 167.388C288.332 166.514 286.357 165.959 284.487 165.516C283.943 165.387 283.369 165.304 282.791 165.219C280.978 164.955 279.153 164.652 277.971 163.186C277.259 162.303 276.96 161.174 277.129 160.142C277.288 159.169 277.856 158.278 278.889 157.744C281.459 156.414 284.652 157.719 287.248 158.83C287.44 158.912 287.629 158.993 287.814 159.071C290.352 160.143 292.667 161.558 294.57 163.581C296.079 165.186 297.478 167.559 298.042 170C298.51 172.03 298.4 174.103 297.341 175.84Z" fill="black"/>
<path fill-rule="evenodd" clip-rule="evenodd" d="M275.087 206.167C270.842 204.254 263.218 205.923 260.451 206.587C254.017 208.13 247.544 211.466 245.544 216.692C243.29 222.582 247.787 224.436 248.449 224.133C252.903 224.447 258.207 221.646 262.874 220.923C266.664 220.331 270.661 219.814 274.211 217.8C276.803 219.227 282.657 219.998 287.382 221.245C291.406 222.306 293.149 224.609 296.879 224.119C301.35 223.533 299.52 214.126 294.537 210.315C289.084 206.144 279.86 204.453 275.087 206.167ZM283.493 246.388C279.778 247.294 279.529 239.151 279.113 236.274C278.788 234.026 276.955 228.229 272.307 228.479C267.659 228.729 265.912 233.586 266.147 236.607C266.3 238.565 268.105 248.487 262.345 249.743C258.673 249.73 254.425 249.482 250.565 248.77C246.02 247.74 240.111 244.135 238.551 251.234C237.989 253.789 258.006 261.38 266.889 262.066C275.897 263.893 286.437 261.084 292.85 254.19C294.309 252.622 298.419 246.112 298.712 244.517C299.327 241.166 297.903 239.01 293.758 240.191C290.83 241.755 285.881 245.806 283.493 246.388Z" fill="black"/>
<path fill-rule="evenodd" clip-rule="evenodd" d="M301.456 197.791C295.727 200.551 287.735 196.48 283.883 192.215C282.48 190.663 281.399 186.22 281.938 183.403C283.399 175.772 288.888 171.193 294.683 169.629C302.717 167.461 310.801 172.954 309.858 179.436C308.965 185.579 307.611 194.49 301.456 197.791ZM262.462 183.133C262.003 191.449 255.327 198.727 247.349 200.884C234.495 204.472 228.142 195.432 225.264 185.694C224.978 184.726 224.306 181.773 226.11 179.239C233.204 169.274 250.463 170.973 259.083 173.709C261.606 176.122 262.638 179.606 262.462 183.133ZM307.681 168.791C307.677 168.796 307.673 168.8 307.669 168.805C307.639 168.787 307.61 168.769 307.58 168.751C307.613 168.765 307.649 168.777 307.681 168.791ZM318.436 169.752C317.689 161.286 291.135 164.528 288.03 165.222C279.557 167.715 272.239 174.497 262.766 171.515C252.95 160.57 219.896 163.709 212.967 169.284C211.655 168.77 210.061 169.046 208.371 169.532C199.692 169.218 160.074 172.211 168.178 183.291C169.408 184.145 170.637 183.276 170.671 181.518C212.914 166.263 208.82 180.552 213.829 178.883C214.594 179.103 215.393 179.243 216.091 179.389C219.968 180.637 221.285 180.252 221.796 184.606C225.305 218.232 270.065 206.626 266.394 179.045C270.029 178.845 273.209 177.273 277.052 178.808C279.721 204.79 300.621 205.839 306.911 196.832C311.654 190.581 309.773 181.147 316.293 176.229C318.867 178.383 319.032 171.111 318.436 169.752Z" fill="black"/>
</g>
</svg>
