<svg width="448" height="448" viewBox="0 0 448 448" fill="none" xmlns="http://www.w3.org/2000/svg">
<mask id="mask0_985_1217" style="mask-type:alpha" maskUnits="userSpaceOnUse" x="0" y="0" width="448" height="448">
<circle cx="224" cy="224" r="224" fill="#C70000"/>
</mask>
<g mask="url(#mask0_985_1217)">
<circle cx="224" cy="224" r="224" fill="#FFAAAA"/>
<path fill-rule="evenodd" clip-rule="evenodd" d="M99.5147 505.302C147.023 512.521 195.393 512.884 243.297 510.263C262.255 508.843 281.271 508.587 300.214 510.402C311.408 511.235 360.486 514.988 364.495 504.959C361.972 451.553 356.86 397.692 341.18 346.329C334.732 328.091 329.193 312.954 316.607 297.862C312.64 293.741 304.086 285.099 299.185 282.28C294.938 279.839 293.163 280.71 290.725 276.586C288.302 272.03 286.514 264.422 283.074 261.207C279.571 257.935 274.379 259.106 267.945 260.16C269.127 244.178 261.753 240.108 251.594 237.069C233.737 230.251 216.102 233.676 211.607 255.422C203.274 255.422 198.593 259.01 193.533 262.457C191.464 263.866 192.903 267.456 190.432 268.564C185.86 270.192 177.782 269.793 173.38 271.797C153.364 280.91 135.536 294.125 123.828 313.424C97.5797 354.629 79.5493 441.428 82.6694 490.265C81.3024 492.409 83.1927 495.484 83.6732 497.791C84.2797 499.796 86.2438 501.131 88.2936 500.903C91.154 503.98 95.5782 504.665 99.5147 505.302Z" fill="white"/>
<path fill-rule="evenodd" clip-rule="evenodd" d="M296.16 281.073C295.868 280.91 296.125 280.493 296.418 280.631C310.508 287.243 321.316 298.844 328.921 312.248C336.797 326.127 341.285 341.885 345.155 357.286L345.294 357.843C349.421 374.319 352.929 390.965 356.088 407.652C359.287 424.55 361.854 441.553 363.92 458.627C364.942 467.068 365.853 475.525 366.563 483.999C366.918 488.233 367.241 492.471 367.53 496.711C367.646 498.406 367.755 500.102 367.849 501.799L367.916 503.072C367.974 504.226 368.111 505.384 367.826 506.523C367.58 507.505 367.06 508.394 366.603 509.295C365.699 511.077 363.221 510.784 362.246 509.295L361.963 508.862C361.317 507.863 360.781 506.935 360.578 505.692C360.382 504.488 360.375 503.227 360.287 502.011C360.125 499.774 359.987 497.535 359.83 495.297C359.5 490.587 359.129 485.879 358.719 481.176C357.908 471.89 357.038 462.612 355.969 453.351C354.07 436.894 351.687 420.479 348.878 404.153C346.133 388.203 342.663 372.416 339.044 356.648L338.669 355.017C332.331 327.488 322.562 295.785 296.16 281.073ZM146.088 388.871C146.191 388.596 146.637 388.532 146.713 388.871C147.662 393.146 147.755 397.549 147.901 401.926C148.044 406.243 148.038 410.58 147.975 414.9C147.743 430.777 147.307 446.64 146.93 462.515C146.742 470.455 146.565 478.397 146.43 486.338C146.378 489.317 146.335 492.295 146.299 495.274L146.256 499.202C146.234 500.939 146.188 502.655 145.977 504.39C145.837 505.531 145.539 506.62 144.91 507.598C144.463 508.292 143.826 508.645 143.205 509.116L143.088 509.206C142.296 509.833 141.462 509.837 140.678 509.206L140.45 509.026C139.701 508.44 139.053 507.982 138.575 507.055C137.909 505.766 137.803 504.366 137.69 502.946C137.518 500.792 137.632 498.607 137.654 496.447C137.699 492.114 137.759 487.782 137.835 483.45C138.113 467.563 138.665 451.673 139.669 435.814C140.143 428.344 140.785 420.85 141.646 413.411L141.81 412.016C142.071 409.828 142.309 407.6 142.577 405.365C138.571 402.546 135.049 399.125 132.046 395.245C131.825 394.96 132.189 394.559 132.456 394.835C135.525 398.014 139.043 400.548 142.938 402.54C143.576 397.861 144.454 393.208 146.088 388.871ZM213.018 247.254C213.073 247.211 213.158 247.192 213.211 247.254C214.072 248.258 213.897 249.793 213.925 251.066L213.928 251.185C213.99 253.045 214.002 254.9 213.996 256.762L213.976 262.689C213.974 263.504 213.908 264.352 213.949 265.172L213.971 265.489C214.424 265.952 214.634 266.622 214.48 267.295C214.453 268.158 214.002 268.877 213.344 269.33L214.754 271.331L216.165 273.331C219.074 277.458 222.015 281.549 225.08 285.562C228.205 289.655 231.539 293.593 235.027 297.379C236.732 299.229 238.465 301.053 240.239 302.837C240.96 303.562 241.699 304.269 242.429 304.984L243.156 305.702C243.586 306.132 244.126 306.557 244.411 307.101C244.579 307.423 244.617 308.214 244.677 308.345C245.215 309.529 244.297 311.416 242.771 310.825L242.84 310.779C243.118 310.586 242.94 310.583 242.306 310.771C241.906 310.77 241.531 310.678 241.181 310.495L241.076 310.438C240.583 310.187 240.142 309.701 239.741 309.313L239.642 309.218C238.725 308.359 237.851 307.448 236.973 306.55C235.139 304.676 233.347 302.762 231.611 300.797C228.149 296.876 224.868 292.796 221.759 288.589C218.594 284.305 215.651 279.801 213.12 275.111C212.16 273.332 211.28 271.518 210.436 269.683C208.793 269.155 208.411 267.407 208.526 265.438C207.919 264.026 207.373 262.585 207.05 261.112C207.006 260.91 207.266 260.72 207.421 260.896C207.946 261.494 208.433 262.13 208.901 262.782C209.183 261.401 209.54 260.131 209.708 259.32L210.436 255.745C206.332 255.531 201.834 257.218 199.005 260.171C198.853 260.94 198.261 261.491 197.684 262.21C197.025 263.031 196.45 263.954 196.022 264.918C195.071 267.056 195.607 270.206 193.762 271.774C193.57 271.937 193.355 272.051 193.133 272.121C194.009 276.417 193.611 281.15 193.592 285.508L193.591 285.891C193.596 290.768 193.433 295.65 193.245 300.523L193.053 305.346C192.805 311.779 192.643 318.214 193.268 324.611C196.121 322.084 199.071 319.671 202.122 317.373C204.129 315.862 206.175 314.404 208.259 313.001L209.952 311.87C211.981 310.509 214.059 309.108 216.28 308.133C219.186 306.859 221.949 307.297 224.754 308.604C227.548 309.906 230.258 311.418 232.998 312.83C235.785 314.264 238.578 315.687 241.369 317.114C243.217 318.059 245.927 318.912 247.283 320.651C247.369 320.267 247.47 319.883 247.588 319.5C247.453 318.917 247.505 318.287 247.832 317.687C252.389 309.311 256.604 300.735 260.791 292.17C262.91 287.836 264.924 283.45 267.047 279.118L269.111 274.899C269.456 274.196 269.802 273.494 270.149 272.793C270.67 271.743 271.212 270.703 271.739 269.656C271.961 269.213 272.24 268.774 272.457 268.327L272.56 268.103C272.565 268.091 273.065 266.518 272.678 266.668L272.645 266.684C272.448 266.796 272.29 266.548 272.418 266.39C272.964 265.714 273.725 266.312 274.036 266.938C274.895 268.659 273.322 271.36 272.716 273.008L272.683 273.1C270.805 278.419 268.678 283.637 266.5 288.837C262.322 298.808 257.833 308.625 253.355 318.459L253.302 318.628C254.257 317.896 255.277 317.231 256.15 316.585C258.352 314.952 260.619 313.4 262.883 311.854C267.033 309.017 271.297 306.367 275.63 303.822L276.498 303.314C278.663 302.052 280.807 301.029 283.377 301.408C285.764 301.76 287.983 303.043 290.14 304.085L290.363 304.192L297.026 307.361C296.314 304.519 295.543 301.691 294.738 298.874C293.169 293.378 291.442 287.928 289.569 282.528C287.82 277.481 285.929 272.491 283.929 267.539L283.327 266.053C282.511 264.014 281.7 261.791 279.37 261.164C277.041 260.536 274.369 261.467 272.24 260.139C272.047 260.018 272.071 259.699 272.305 259.64L273.619 259.309C276.085 258.695 278.976 258.077 281.309 258.674C283.846 259.325 285.946 261.455 287.177 263.671C288.547 266.135 289.512 268.892 290.551 271.52L290.715 271.934C291.908 274.907 293.055 277.899 294.152 280.909C296.346 286.926 298.344 293.016 300.152 299.16C301.023 302.121 301.85 305.097 302.644 308.079C302.873 308.937 303.25 309.977 303.559 311.062C303.913 311.408 304.248 311.793 304.563 312.233C305.084 312.963 304.71 313.818 304.061 314.255C304.036 315.002 303.87 315.704 303.474 316.306C301.927 318.655 297.836 318.05 298.002 314.891C298.027 314.408 298.216 313.946 298.501 313.556L298.493 313.493L298.46 313.377C297.75 313.037 297.037 312.657 296.285 312.286L289.292 308.829C287.266 307.827 285.021 306.28 282.769 305.898C280.669 305.543 278.453 307.108 276.649 308.052L276.532 308.113C272.17 310.349 267.84 312.66 263.528 314.99C261.423 316.127 259.345 317.312 257.248 318.463C255.494 319.426 253.602 320.807 251.631 321.351C250.789 322.005 249.789 321.918 248.985 321.423C249.353 323.698 249.33 326.033 249.443 328.36C249.594 331.47 249.617 334.589 249.667 337.703L249.688 338.871C249.82 345.756 249.891 352.643 249.917 359.529C250.01 384.051 249.739 408.581 249.676 433.103C249.644 445.424 249.4 457.755 249.08 470.071C248.944 475.29 248.661 480.503 248.355 485.713L248.186 488.556C247.829 494.553 247.619 500.616 246.509 506.532C246.364 507.304 245.059 507.323 244.931 506.532C243.909 500.193 243.852 493.714 243.656 487.3L243.615 486.019C243.379 479.132 243.267 472.25 243.291 465.36C243.378 440.828 244.015 416.311 244.537 391.786C244.799 379.464 244.975 367.136 245.383 354.818C245.586 348.654 245.817 342.494 246.09 336.333C246.212 333.582 246.33 330.834 246.513 328.088L246.595 326.91C246.652 326.142 246.698 325.384 246.753 324.632C244.272 325.539 242.003 323.86 239.771 322.712C237.198 321.388 234.627 320.062 232.054 318.741L229.478 317.422L224.323 314.791C222.003 313.606 220.215 312.427 217.739 313.817C208.822 318.822 200.627 325.481 193.201 332.469C191.776 333.809 188.767 333.449 188.407 331.203C186.866 321.608 187.803 311.874 188.59 302.25L188.88 298.677C189.231 294.409 189.614 290.141 190.124 285.891C190.352 283.99 190.579 282.09 190.83 280.192L191.024 278.769C191.338 276.52 191.543 274.284 192.213 272.127C192.002 272.058 191.798 271.946 191.616 271.774C189.603 269.863 190.574 266.546 191.492 264.272C192.4 262.028 193.783 260.069 195.516 258.384C195.894 258.015 196.427 257.779 196.962 257.766C201.163 254.982 205.772 253.592 210.569 255.112C210.704 254.468 210.841 253.824 210.986 253.182L211.133 252.541C211.506 250.949 211.645 248.319 213.018 247.254ZM256.075 498.711C257.379 498.352 258.806 498.73 259.762 499.686C260.717 500.641 261.095 502.069 260.736 503.373C260.556 504.015 260.231 504.572 259.762 505.046C259.323 505.482 258.811 505.793 258.226 505.979L258.09 506.02L257.877 506.109C257.223 506.285 256.569 506.285 255.916 506.109C255.291 505.934 254.749 505.618 254.289 505.161C253.832 504.7 253.516 504.158 253.341 503.532C253.165 502.879 253.165 502.225 253.341 501.571L253.43 501.358C253.609 500.716 253.934 500.158 254.403 499.686C254.876 499.216 255.434 498.891 256.075 498.711ZM333.484 368.752C333.699 368.506 334.046 368.821 333.913 369.082C331.882 373.065 329.619 377.019 327.395 380.9C327.573 381.976 327.749 383.043 327.953 384.083C328.819 388.516 329.881 392.869 330.573 397.344C333.06 413.431 334.351 429.691 335.459 445.922C336.571 462.211 336.713 478.508 336.88 494.828C336.894 496.243 335.807 497.887 334.349 498.154C333.682 498.275 333.183 498.252 332.517 498.154C331 497.93 330.051 496.192 329.986 494.828C329.551 485.707 328.966 476.597 328.288 467.489C327.087 451.343 326.353 435.155 325.382 418.991L325.04 413.342C324.673 407.221 324.338 401.096 324.229 394.966C324.156 390.904 324.373 386.844 324.24 382.788C324.116 379.042 323.737 374.97 324.562 371.29C324.593 371.153 324.81 371.118 324.873 371.25C325.732 373.057 326.275 375.021 326.694 377.027C328.906 374.228 331.158 371.424 333.484 368.752ZM188.609 269.82C188.92 269.798 188.907 270.265 188.609 270.299C184.269 270.803 180.076 272.57 175.977 274.072L175.626 274.2C171.486 275.702 167.449 277.45 163.564 279.533C155.969 283.606 148.994 288.858 142.827 294.87C118.207 318.87 106.986 353.478 98.7647 386.002C94.1966 404.071 90.9482 422.447 88.8427 440.963C87.8015 450.12 87.0655 459.312 86.6364 468.519C86.4168 473.237 86.2782 477.96 86.2204 482.683C86.1906 485.102 86.1819 487.522 86.1848 489.941C86.1862 491.05 86.3841 492.446 86.0877 493.522C85.8128 494.519 85.0375 495.397 84.464 496.228C83.7843 497.214 82.5629 497.162 81.8738 496.228L81.6196 495.888C80.8847 494.913 80.1656 493.981 80.0606 492.706C79.9482 491.34 80.0275 489.931 80.0224 488.559C80.0108 485.793 80.045 483.028 80.1003 480.263C80.2068 474.965 80.4155 469.668 80.7257 464.377C81.3556 453.64 82.3923 442.924 83.8767 432.271C86.5153 413.336 90.4703 394.582 95.6508 376.18C100.538 358.82 106.328 341.512 114.576 325.432C122.235 310.502 132.282 296.613 145.539 286.179C151.704 281.327 158.415 277.283 165.65 274.238C169.299 272.702 173.131 271.448 177.029 270.733C180.883 270.026 184.72 270.125 188.609 269.82ZM256.823 468.027C257.511 468.021 258.279 468.173 258.869 468.554L259.658 469.164C259.872 469.438 260.085 469.714 260.297 469.991C260.79 470.634 260.856 471.675 260.753 472.441C260.73 472.953 260.578 473.429 260.297 473.87L259.696 474.648C259.119 475.119 258.637 475.455 257.938 475.682C257.572 475.8 257.22 475.825 256.869 475.807L256.752 475.8L256.823 475.809L256.7 475.795C256.586 475.785 256.471 475.773 256.356 475.757C256.278 475.748 256.199 475.742 256.121 475.731C256.046 475.725 255.973 475.722 255.897 475.729C255.008 475.812 254.115 475.308 253.484 474.729C252.916 474.207 252.405 473.1 252.485 472.315L252.519 471.987C252.578 471.434 252.627 471.216 252.862 470.661C253.089 470.12 253.408 469.643 253.841 469.24C254.67 468.469 255.685 468.035 256.823 468.027ZM254.072 427.543C255.251 426.257 257.277 426.162 258.74 426.94C259.096 427.13 259.424 427.435 259.738 427.689C260.53 428.329 260.84 429.484 260.884 430.457C260.927 431.419 260.42 432.562 259.738 433.226L259.572 433.387C259.165 433.783 258.581 434.128 258.011 434.233C257.091 434.402 256.319 434.397 255.462 434.035C254.726 433.725 254.092 433.225 253.661 432.548L253.591 432.433C253.561 432.386 253.533 432.338 253.507 432.288L253.469 432.213C252.649 430.637 252.87 428.852 254.072 427.543ZM254.683 386.846C255.215 386.679 255.746 386.656 256.278 386.775C256.639 386.776 256.976 386.867 257.288 387.048C257.627 387.143 257.922 387.314 258.171 387.563C258.471 387.74 258.711 387.98 258.889 388.281C259.243 388.667 259.481 389.121 259.605 389.642L259.748 390.706L259.605 391.77L259.202 392.727C259.091 392.872 258.979 393.016 258.866 393.16C258.688 393.462 258.448 393.703 258.147 393.881C257.951 394.076 257.726 394.222 257.475 394.323C256.584 394.962 255.397 395.17 254.341 394.879C253.714 394.704 253.17 394.386 252.708 393.927C252.25 393.465 251.932 392.921 251.757 392.294L251.685 391.793C251.592 391.122 251.577 390.75 251.767 389.896C251.85 389.521 252.092 388.991 252.218 388.768C252.76 387.817 253.644 387.165 254.683 386.846ZM300.877 357.568C302.405 357.557 303.933 357.56 305.46 357.577L306.606 357.592C308.524 357.622 310.167 357.424 311.675 358.756C312.769 359.722 312.287 361.343 311.248 362.071C309.674 363.173 307.699 362.619 305.89 362.497C303.981 362.369 302.072 362.263 300.161 362.177C296.462 362.012 292.761 361.906 289.058 361.89C285.363 361.874 281.662 361.909 277.968 361.969C274.208 362.03 270.294 362.38 266.556 361.991C266.042 361.938 265.927 361.262 266.434 361.086C269.956 359.867 273.919 359.472 277.611 359.006C281.418 358.525 285.226 358.184 289.058 357.964C292.994 357.738 296.935 357.595 300.877 357.568ZM254.676 345.594L254.802 345.597C255.474 345.598 256.103 345.756 256.69 346.071L256.815 346.141L257.622 346.765C258.117 347.263 258.459 347.85 258.648 348.526L258.79 349.587C258.812 350.136 258.697 350.648 258.447 351.124C258.286 351.619 258.011 352.046 257.622 352.408C257.261 352.797 256.833 353.072 256.339 353.233C255.9 353.464 255.43 353.579 254.928 353.579L254.802 353.577C254.082 353.574 253.411 353.393 252.789 353.032L251.981 352.408C251.487 351.91 251.145 351.323 250.956 350.647L250.813 349.587C250.792 349.037 250.907 348.524 251.157 348.049C251.318 347.554 251.592 347.126 251.981 346.765C252.343 346.376 252.77 346.101 253.265 345.94C253.704 345.709 254.174 345.594 254.676 345.594ZM266.501 251.857C267.36 250.611 268.918 251.719 268.695 252.72C268.754 255.532 268.897 258.26 269.537 261.015C269.83 262.276 270.213 263.538 270.805 264.693L271.053 265.179C271.819 266.693 272.414 268.12 271.382 269.781C270.896 270.564 270.018 271.152 269.065 271.11C264.842 270.928 264.261 265.047 264.004 261.764C263.74 258.382 264.563 254.666 266.501 251.857Z" fill="black"/>
<path fill-rule="evenodd" clip-rule="evenodd" d="M310.153 176.658C308.775 154.03 301.435 128.375 279.833 117.265C232.21 98.1448 169.596 146.294 166.281 195.483C165.126 212.32 174.471 230.719 191.548 235.4C195.345 240.433 201.087 243.506 206.754 246.173C274.257 281.209 317.86 252.729 310.153 176.658Z" fill="white"/>
<path fill-rule="evenodd" clip-rule="evenodd" d="M325.532 162.582C323.147 155.954 320.627 149.376 317.976 142.85C315.394 136.498 313.062 130.009 309.855 123.959C290.706 87.8199 255.883 87.8198 237.883 92.5418C228.548 88.5183 211.064 89.6532 201.344 93.2839C185.608 99.1617 166.426 122.283 159.868 132.672C145.388 155.608 136.351 186.136 145.969 212.64C147.227 216.104 148.83 219.313 150.635 222.404C149.498 223.946 148.189 225.406 146.739 226.841C142.431 231.105 138.122 235.229 134.4 240.039C130.702 244.819 127.635 249.902 125.353 255.506C121.049 266.075 120.841 278.042 126.532 288.126C131.482 296.901 140.253 303.435 150.133 304.058C150.64 304.129 151.148 304.193 151.659 304.245C152.968 306.402 154.564 308.388 156.386 310.12C161.968 315.431 175.274 318.156 182.863 318.331C183.252 318.643 183.645 318.956 184.038 319.265C188.681 322.922 193.554 326.61 198.885 329.211C202.496 330.976 207.231 332.449 210.998 331.176C212.708 332.318 215.511 332.078 217.206 331.143C219.991 329.608 222.257 326.843 223.635 324.013C226.977 317.141 226.173 309.621 225.315 302.28C224.37 294.171 223.461 286.059 222.537 277.95C221.813 271.609 221.057 265.163 219.129 259.055C218.133 255.89 216.828 252.849 215.14 249.989C215.184 249.749 215.177 249.509 215.108 249.284C214.555 247.486 213.413 246.544 212.06 245.322C211.886 245.165 211.711 245.005 211.54 244.842C210.864 244.07 210.14 243.354 209.366 242.746C209.067 242.444 208.773 242.139 208.478 241.833C206.031 239.268 203.718 236.573 201.664 233.684C199.671 230.883 197.871 227.958 196.158 224.979C194.416 221.949 193.263 218.605 191.525 215.597C191.376 215.339 190.998 215.288 190.787 215.502C190.249 216.059 189.903 216.677 189.969 217.328L189.7 217.368C189.598 216.386 188.692 215.586 187.463 215.801C185.623 216.121 184.11 216.241 182.518 215.63C182.798 213.771 183.056 211.908 183.31 210.042C183.776 206.608 184.209 203.163 184.58 199.717C185.478 199.932 186.369 200.241 187.241 200.634C188.485 201.191 189.66 201.94 190.663 202.861C191.652 203.77 192.336 204.996 193.543 205.629C194.932 206.353 196.609 205.156 196.202 203.585C195.376 200.409 190.703 198.59 187.812 197.989C186.82 197.782 185.805 197.695 184.79 197.717C185.02 195.505 185.223 193.293 185.39 191.077C185.47 190.03 185.543 188.982 185.612 187.931C187.86 187.25 190.267 187.047 192.605 187.367C193.376 187.982 194.147 188.589 194.893 189.204C197.26 191.161 199.616 193.129 201.944 195.134C202.155 195.312 202.362 195.49 202.573 195.672C203.955 196.862 205.678 195.683 205.446 193.999C203.547 180.197 211.998 169.217 221.893 160.712C232.846 151.294 252.759 150.197 265.785 133.883C271.784 135.104 285.178 138.732 290.706 147.543C298.444 159.89 297.433 170.953 298.022 184.959C298.612 198.975 300.11 213.596 296.928 227.416C293.993 240.16 286.048 251.048 273.72 256.054C273.415 256.177 273.105 256.297 272.796 256.414C266.422 258.818 259.465 259.499 252.759 258.233C245.337 256.829 239.141 253.431 232.966 249.251C232.61 249.014 232.09 249.502 232.359 249.858C240.497 260.648 256.483 264.253 269.164 261.405C269.756 261.27 270.345 261.125 270.931 260.965C268.094 269.125 268.665 278.081 272.36 286.026C274.582 290.806 277.971 294.943 282.098 298.206C286.648 301.8 292.291 304.703 295.448 309.749C298.339 314.373 297.481 319.567 292.531 322.238C291.284 322.914 290.804 325.101 292.04 326.061C292.513 326.425 292.986 326.796 293.47 327.16C296.241 329.251 303.852 333.18 305.084 333.326C316.03 334.625 323.39 326.585 328.107 317.101C333.645 305.969 332.205 292.403 326.103 281.803C321.209 273.297 311.568 264.916 315.401 254.151C316.768 250.306 319.565 247.028 322.281 244.067C325.38 240.695 328.711 237.537 331.682 234.044C334.634 230.578 337.253 226.805 338.714 222.454C340.849 216.095 339.787 209.22 338.183 202.871C334.747 189.244 330.285 175.798 325.532 162.582Z" fill="black"/>
<path fill-rule="evenodd" clip-rule="evenodd" d="M264.22 233.726C261.775 232.729 259.594 231.064 258 228.939C257.445 228.2 257.301 227.419 257.418 226.705C257.548 225.903 258.023 225.175 258.67 224.688C259.32 224.198 260.132 223.957 260.917 224.08C261.599 224.187 262.279 224.56 262.816 225.336L262.928 225.491C263.877 226.774 265.112 227.826 266.52 228.505C267.876 229.159 269.394 229.464 270.964 229.287C273.954 228.949 276.016 227.331 278.206 225.134C278.478 224.856 278.75 224.57 279.023 224.279C279.195 224.016 279.435 223.847 279.7 223.758C279.995 223.659 280.329 223.665 280.635 223.771C280.929 223.874 281.193 224.069 281.37 224.329C281.538 224.576 281.633 224.88 281.602 225.231C281.401 227.508 280.211 229.54 278.521 231.136C276.644 232.908 274.155 234.134 271.813 234.564C269.231 235.037 266.601 234.698 264.22 233.726ZM273.03 198.599C275.776 200.269 279.96 204.163 277.006 208.302C273.529 211.952 268.522 207.767 266.055 205.874C263.768 204.408 261.198 208.18 263.32 209.893C281.147 223.097 288.382 199.036 274.419 196.636C272.882 196.371 272.311 198.082 273.03 198.599ZM241.084 183.24C241.387 179.472 247.123 178.617 247.693 182.345C248.204 185.684 247.603 188.752 246.099 191.759C244.662 194.631 241.051 193.291 240.778 190.676C240.412 187.169 240.895 185.583 241.084 183.24ZM284.744 181.572C285.544 180.524 286.698 179.809 288.082 180.213C292.404 181.476 291.13 187.615 289.612 190.602C288.787 192.225 286.121 192.636 284.917 191.208C282.953 188.878 282.012 184.226 284.509 181.931C284.577 181.812 284.652 181.692 284.744 181.572ZM246.038 166.754L246.721 166.635C248.833 166.269 251.459 165.918 252.953 167.617C253.745 168.518 254.018 170.192 252.953 171.054C251.079 172.571 249.008 171.983 246.763 172.111C244.913 172.218 243.134 172.524 241.352 173.034C237.442 174.152 234.256 176.192 230.917 178.433C230.479 178.727 230.031 178.167 230.241 177.757C232.168 173.979 235.904 170.877 239.646 168.985C241.643 167.976 243.829 167.138 246.038 166.754ZM280.804 165.062L281.327 165.169C287.013 166.358 294.401 168.734 297.094 174.321C297.197 175.111 297.088 175.281 297 175.391L296.971 175.428C296.898 175.523 296.84 175.653 296.498 175.76C296.403 175.738 296.307 175.714 296.21 175.688C294.976 175.365 293.999 174.919 293.054 174.456L292.028 173.951C290.839 173.368 289.639 172.806 288.368 172.391C285.654 171.505 282.863 170.881 280.029 170.548C279.414 170.476 278.823 170.269 278.356 169.913C277.913 169.576 277.575 169.109 277.42 168.488C277.22 167.684 277.278 167.076 277.709 166.351C278.033 165.806 278.497 165.429 279.029 165.212C279.572 164.991 280.19 164.939 280.804 165.062Z" fill="black"/>
</g>
</svg>
