<svg width="448" height="448" viewBox="0 0 448 448" fill="none" xmlns="http://www.w3.org/2000/svg">
<mask id="mask0_985_1198" style="mask-type:alpha" maskUnits="userSpaceOnUse" x="0" y="0" width="448" height="448">
<circle cx="224" cy="224" r="224" fill="#C70000"/>
</mask>
<g mask="url(#mask0_985_1198)">
<circle cx="224" cy="224" r="224" fill="#AABDFF"/>
<path fill-rule="evenodd" clip-rule="evenodd" d="M358.742 504.978C365.548 504.649 362.811 492.741 362.322 488.367C356.934 472.394 358.201 454.967 356.082 438.224C354.762 422.594 353.065 407.013 351.639 391.396C348.836 359.694 328.713 295.156 305.749 284.777C302.856 272.079 290.908 260.226 275.791 260.226C265.48 248.017 253.07 239.424 237.152 241.159C230.575 241.458 224.195 248.437 217.893 249.785C214.364 250.272 183.045 249.019 176.771 252.746C172.401 254.991 168.456 259.139 169.741 264.42C171.791 270.818 165.42 263.895 152.13 270.724C125.028 287.007 141.223 308.79 141.941 309.465C125.028 333.005 110.246 352.102 103.407 380.875C98.9742 402.236 99.4731 424.288 95.7592 445.759C94.4478 453.203 92.4361 460.394 90.2592 467.623C87.8999 477.085 86.7527 500.667 85.4523 500.878C83.0835 501.467 86.8213 506.332 89.3314 506.336C158.921 517.884 229.608 506.814 299.572 505.006C319.288 504.32 339.027 504.162 358.742 504.978Z" fill="white"/>
<path fill-rule="evenodd" clip-rule="evenodd" d="M253.27 311.543C253.302 311.224 253.732 311.225 253.765 311.543L254.257 316.288C254.854 322.082 255.43 327.866 255.847 333.688C256.367 340.948 256.715 348.206 256.883 355.482C257.467 380.823 257.583 406.178 257.633 431.526C261.059 431.288 264.486 431.06 267.915 430.838C270.241 430.688 272.567 430.544 274.894 430.402L280.827 430.042L283.269 429.892C284.919 429.79 286.795 429.374 287.948 430.837C288.41 431.423 288.642 432.183 288.212 432.878C287.218 434.482 285.692 434.426 283.967 434.495C282.338 434.561 280.71 434.625 279.082 434.688C275.592 434.824 272.104 434.952 268.613 435.05C264.95 435.152 261.289 435.236 257.628 435.298C257.591 445.999 257.148 456.686 256.67 467.375L256.453 472.186C255.867 485.193 255.237 498.213 254.343 511.203C254.269 512.267 252.765 512.265 252.692 511.203C251.684 496.574 251.02 481.913 250.36 467.264C249.882 456.643 249.604 446.019 249.472 435.393C248.987 435.396 248.504 435.403 248.02 435.405C234.277 435.464 220.538 435.524 206.795 435.395C206.818 435.423 206.841 435.45 206.856 435.486C207.85 437.834 207.945 440.831 207.921 443.352C207.893 446.243 207.504 449.098 206.838 451.909C204.454 461.98 198.304 471 191.299 478.457L191.07 478.7C189.418 480.447 187.522 482.201 186.508 484.426C185.472 486.697 185.112 489.354 184.601 491.795L184.541 492.075L182.541 501.314C181.906 504.248 181.726 508.528 179.404 510.645C177.238 512.621 174.368 511.589 173.348 509.046C172.552 507.061 173.345 504.88 173.817 502.896L177.511 487.361C178.118 484.828 178.781 482.278 180.091 480.002C181.433 477.671 183.401 475.981 185.408 474.252C189.209 470.978 192.699 467.23 195.65 463.172C198.6 459.115 201.122 454.644 202.89 449.941C203.775 447.588 204.5 445.142 205.001 442.677C205.477 440.337 205.472 437.915 205.981 435.6C206.016 435.44 206.151 435.331 206.305 435.282C206.269 435.179 206.325 435.039 206.469 435.03L217.708 434.308C227.699 433.663 237.689 433.002 247.671 432.246L249.435 432.119C249.298 417.941 249.414 403.762 249.67 389.579C249.904 376.574 249.909 363.565 250.296 350.561C250.488 344.107 250.903 337.668 251.364 331.228C251.836 324.641 252.591 318.11 253.27 311.543ZM147.739 386.952C147.619 386.229 148.527 385.782 148.946 386.443C153.732 393.989 156.039 402.186 157.012 411.017C157.871 418.811 157.618 426.717 157.19 434.532C156.734 442.866 156.201 451.199 155.663 459.529L154.836 472.304L152.76 504.328C152.611 506.619 152.091 508.702 150.12 509.767C149.87 509.975 149.61 510.162 149.307 510.324C148.242 510.894 146.829 510.606 146.213 509.513L146.46 509.675C146.675 509.811 146.433 509.622 145.735 509.108L145.142 508.341C144.712 507.694 144.437 507.057 144.326 506.287C144.154 505.091 144.377 503.78 144.455 502.578L145.816 481.578C146.874 465.253 148.109 448.932 149.041 432.598C149.475 424.986 149.779 417.366 149.573 409.74C149.368 402.156 148.982 394.444 147.739 386.952ZM189.14 246.376L189.406 246.332C198.912 244.752 209.248 245.048 217.936 249.632C218.007 249.669 217.975 249.789 217.894 249.785L215.098 249.673C206.246 249.327 197.421 249.121 188.717 251.202L187.826 251.417C184.691 252.182 181.418 253.118 178.9 255.189C176.494 257.169 175.295 260.223 174.143 263.034L173.989 263.405C172.82 266.182 171.34 268.815 168.778 270.552C165.459 272.8 161.468 272.525 157.662 272.83C150.962 273.369 145.484 278.226 142.758 284.171C141.108 287.771 140.404 291.806 140.264 295.742C140.193 297.746 140.183 299.829 140.45 301.819C140.535 302.456 141.321 304.775 141.723 304.719C142.614 304.596 143.429 305.061 143.706 305.773C145.908 303.646 148.173 301.579 150.511 299.587C156.338 294.623 162.615 290.123 169.225 286.256C174.27 283.305 179.592 280.381 185.102 278.171C184.665 278.162 184.235 278.248 183.818 278.465C183.636 278.56 183.454 278.331 183.598 278.18C185.334 276.353 187.413 276.093 189.509 276.58C189.956 276.438 190.404 276.3 190.853 276.17C191.077 276.104 191.188 276.413 191.006 276.532L190.491 276.861C192.777 277.627 195.022 279.133 196.799 280.321C201.904 283.735 206.398 287.907 210.953 292.002L211.781 292.744C215.791 296.325 219.903 299.806 224.458 302.679C226.843 304.183 229.348 305.574 231.975 306.609C234.228 307.497 237.897 308.056 238.952 310.438C239.89 311.578 239.498 313.033 238.4 313.8C236.547 315.84 232.84 314.522 230.632 313.673C227.971 312.648 225.392 311.417 222.933 309.973C218.158 307.169 213.756 303.683 209.655 299.974C205.372 296.1 201.332 291.985 197.166 287.99C195.361 286.259 193.598 284.488 191.79 282.759L190.882 281.899C189.96 281.033 188.645 279.684 187.24 278.868C184.592 280.448 181.904 281.962 179.28 283.583C175.617 285.845 172.063 288.271 168.563 290.776C161.825 295.599 155.44 301.001 149.513 306.791C138.642 317.409 129.38 329.534 121.289 342.373L120.675 343.351C116.077 350.7 111.729 358.285 108.646 366.405C105.254 375.341 103.604 384.737 102.708 394.222C101.818 403.639 101.518 413.103 100.524 422.511C99.505 432.16 97.4964 441.596 95.2118 451.014L94.6669 453.247C92.5996 461.682 90.466 470.117 89.4033 478.751C88.836 483.363 88.4948 488.038 88.5719 492.687C88.6494 497.364 89.384 501.937 89.9766 506.564C90.2037 508.336 88.46 509.816 86.8997 510.051C85.1052 510.32 83.5636 509.175 83.0058 507.507C81.2669 502.309 80.9511 496.562 81.0057 491.106C81.0606 485.567 81.7673 480.063 82.7618 474.619C84.7175 463.911 87.7356 453.424 90.2604 442.844C92.4855 433.519 93.9789 424.177 94.7839 414.624C95.6195 404.713 96.1199 394.768 97.6443 384.928C99.149 375.214 101.98 365.935 106.25 357.077C110.137 349.012 114.983 341.421 120.064 334.063C126.234 325.129 133.01 316.627 140.584 308.88C139.904 308.851 139.205 308.631 138.564 308.231C136.601 307.006 135.687 304.61 135.406 302.423C134.748 297.305 134.907 291.963 136.222 286.959C138.344 278.888 143.853 271.717 151.835 268.807C153.89 268.058 156.074 267.785 158.252 267.731C160.318 267.679 162.575 267.949 164.569 267.294C167.742 266.25 169.103 262.511 170.294 259.677L170.349 259.547C171.877 255.935 173.711 252.839 177.02 250.584C180.551 248.177 184.975 247.083 189.14 246.376ZM279.462 260.66C282.318 259.669 285.889 260.568 288.683 261.434C291.795 262.399 294.671 264.177 297.136 266.288C299.738 268.515 301.887 271.264 303.406 274.335L303.551 274.631C304.939 277.479 306.518 281.39 305.819 284.52C305.799 284.609 305.776 284.694 305.75 284.777C311.418 287.568 316.652 291.064 321.21 295.495C326.517 300.654 331.011 306.525 334.814 312.867C349.918 338.057 352.577 368.31 354.361 397.037L354.806 404.321C355.774 420.049 356.908 435.741 359.852 451.252L360.067 452.372C363.215 468.612 367.72 484.977 367.264 501.637C367.127 506.629 359.753 506.595 359.539 501.637C358.734 482.977 354.381 464.959 351.433 446.59C346.247 414.272 348.845 380.955 341.496 348.961C338.612 336.405 334.145 324.226 327.765 313.019C324.614 307.482 321.009 302.132 316.785 297.356C313.151 293.246 309.375 289.29 305.128 285.835C303.771 287.195 301.06 286.502 300.352 284.52C299.865 283.158 300.007 281.565 299.695 280.138C299.405 278.814 299.005 277.501 298.473 276.254C297.411 273.769 295.854 271.382 294.055 269.371C292.113 267.196 289.88 265.39 287.381 263.898C284.866 262.397 282.114 261.948 279.462 260.851C279.372 260.814 279.364 260.694 279.462 260.66ZM290.559 433.376C290.564 433.245 290.718 433.183 290.813 433.271C291.815 434.193 292.42 435.516 293.157 436.65C294.007 437.958 294.9 439.239 295.836 440.486C297.711 442.986 299.799 445.342 301.903 447.65C303.861 449.797 305.947 451.853 308.11 453.792C310.455 455.892 313.082 457.766 315.212 460.092C319.657 464.944 320.375 471.605 321.313 477.859L321.415 478.535C321.987 482.247 322.5 485.968 322.962 489.695C323.186 491.508 323.41 493.322 323.593 495.14L323.649 495.715C323.813 497.495 323.857 499.3 322.835 500.854C321.742 502.517 319.256 503.1 317.778 501.506C315.239 498.766 315.715 493.9 315.385 490.375C315.112 487.461 314.802 484.55 314.456 481.644L314.279 480.191C313.871 476.884 313.539 473.512 312.783 470.263C312.117 467.402 310.847 465.242 308.763 463.17C306.663 461.082 304.482 459.133 302.544 456.884C300.489 454.499 298.635 451.942 296.964 449.273C295.535 446.991 294.39 444.507 293.341 442.025L293.167 441.612C292.152 439.192 290.48 436.042 290.559 433.376ZM327.221 329.441C327.243 329.103 327.742 329.098 327.749 329.441C327.812 332.344 327.873 335.246 327.933 338.149C328.417 361.541 328.119 384.988 330.465 408.299C331.571 419.29 333.608 430.12 335.966 440.904C337.172 446.422 338.438 451.928 339.641 457.447C340.812 462.825 342.069 468.23 342.999 473.659C343.912 478.995 344.73 484.371 345.098 489.776L345.143 490.481C345.301 493.098 346.056 496.949 344.615 499.269C343.053 501.783 340.064 501.828 338.391 499.428C336.82 497.176 337.211 493.168 336.933 490.481C336.651 487.743 336.353 485.002 336.014 482.27C335.353 476.942 334.482 471.625 333.577 466.332C331.69 455.31 328.954 444.427 326.935 433.423C324.865 422.147 323.394 410.791 323.332 399.31C323.27 387.732 324.495 376.177 325.114 364.624C325.742 352.891 326.456 341.166 327.221 329.441ZM216.764 256.685C217.392 254.571 219.607 253.248 221.769 253.842C223.749 254.387 225.385 256.792 224.61 258.85C223.765 261.095 222.288 263.01 221.043 265.05C219.893 266.936 218.216 268.421 217.044 270.273L218.335 271.665C218.981 272.36 219.629 273.05 220.284 273.729L222.535 276.062C224.289 277.875 226.054 279.679 227.868 281.43C233.204 286.578 238.624 291.558 244.599 295.967C245.959 296.97 247.33 297.967 248.739 298.902L249.265 299.25C250.232 299.883 251.31 300.506 252.478 300.398C255.316 300.138 257.881 297.123 259.831 295.246L259.933 295.148C264.766 290.548 269.241 285.518 273.154 280.11C274.023 278.909 274.864 277.687 275.683 276.45C273.791 274.24 274.243 269.925 274.139 267.244C274.065 265.359 274.06 263.473 274.049 261.587L274.044 261.207C274.021 259.986 273.966 258.815 274.758 257.81C274.804 257.752 274.9 257.754 274.959 257.784C276.043 258.353 276.378 259.305 276.841 260.373L276.889 260.484C277.452 261.766 277.992 263.06 278.538 264.349C279.109 265.699 279.633 267.069 280.164 268.435C280.411 269.07 280.647 269.708 280.878 270.35C281.018 270.759 281.164 271.167 281.313 271.574L281.348 271.605C281.546 271.773 281.713 271.949 281.857 272.132C282.462 272.435 282.943 272.987 283.169 273.798C283.66 275.563 282.643 277.002 281.737 278.403C278.053 284.096 273.855 289.521 269.187 294.442C266.869 296.886 264.43 299.221 261.892 301.436L261.448 301.82C259.167 303.781 256.691 305.638 253.645 306.097C250.081 306.634 247.18 304.86 244.451 302.818L244.179 302.612C241.592 300.653 239.057 298.626 236.601 296.505C231.594 292.18 226.831 287.537 222.604 282.443C218.492 277.488 214.427 271.947 211.892 265.985C211.738 265.622 212.144 265.242 212.462 265.545C213.7 266.724 214.892 267.967 216.069 269.226C216.102 267.373 215.76 265.504 215.95 263.639C216.182 261.372 216.115 258.868 216.764 256.685Z" fill="black"/>
<path fill-rule="evenodd" clip-rule="evenodd" d="M299.501 177.039C298.664 166.209 299.961 154.857 295.787 144.563C288.509 127.483 268.101 121.789 252.279 115.286C245.941 113.413 224.612 113.151 217.191 110.671C200.394 105.059 196.381 98.3716 183.034 109.058C180.781 110.883 179.372 112.867 178.343 115.578L178.386 115.589C178.092 116.719 178.407 117.847 179.069 118.708C173.282 124.626 170.86 133.497 173.829 141.375C183.519 161.873 183.063 172.956 179.941 194.993C175.864 215.566 185.181 223.081 200.61 234.274C199.981 235.493 199.851 237.112 200.67 238.187C218.512 263.269 252.152 275.244 280.975 262.514C292.675 257.304 297.898 244.84 300.879 233.593C304.351 220.999 305.418 207.729 302.591 194.901C301.451 188.968 299.966 183.078 299.501 177.039Z" fill="white"/>
<path fill-rule="evenodd" clip-rule="evenodd" d="M196.588 57.0486C198.753 56.7233 200.389 58.0675 201.167 59.9621L201.208 60.0641C201.458 60.7087 201.736 61.3358 202.035 61.9522C207.454 59.2926 215.187 59.976 218.617 65.3622C221.064 69.209 219.571 73.7744 218.649 77.8537L218.043 80.5416C219.214 81.2869 220.097 82.6216 220.055 84.0037L220.05 84.1101L219.804 87.8582C220.585 87.0656 221.3 86.2025 221.938 85.2831C222.378 84.4764 222.853 83.6838 223.364 82.9159C226.368 78.3962 233.111 82.324 230.632 87.1642C230.156 88.0978 229.621 88.982 229.047 89.8345C228.399 91.0921 227.868 92.3849 227.459 93.713C228.632 94.2237 229.533 95.3581 229.628 97.0701C229.85 101.068 227.751 104.404 224.413 106.5C223.431 107.117 222.417 107.237 221.498 107.008C221.336 107.226 221.174 107.444 221.019 107.666C222.35 108.748 223.55 109.981 224.582 111.348C227.688 110.883 230.811 110.664 233.935 110.657C237.752 108.787 242.323 108.825 246.425 109.526C249.066 109.977 251.601 110.854 254.2 111.485C256.94 112.147 259.722 112.172 262.493 112.623C265.986 113.19 269.05 114.803 270.976 117.378C273.092 117.442 275.317 118.308 277.163 119.485C281.459 122.226 285.73 125.005 290.015 127.763C291.66 128.822 292.275 130.513 291.973 132.398L291.952 132.519L291.808 133.301L292.147 133.782C293.458 135.635 294.885 137.576 295.734 139.621C297.305 141.886 298.724 144.26 299.981 146.709C301.675 149.999 303.073 153.486 304.02 157.065C304.256 157.971 304.492 158.883 304.647 159.806C304.868 161.109 304.527 162.12 304.34 163.371C304.108 164.956 304.023 166.563 303.777 168.151C303.611 169.205 302.717 169.722 301.78 169.751C302.132 172.431 302.386 175.13 302.629 177.807C302.97 181.633 303.203 185.469 303.404 189.305C304.439 190.809 306.555 192 308.083 192.412C310.2 192.979 312.418 192.363 314.418 191.641C315.675 191.186 316.707 192.768 316.094 193.825C314.168 197.143 310.048 197.129 306.928 195.66C305.608 195.04 304.449 194.142 303.59 192.972C303.643 194.085 303.699 195.199 303.756 196.315L303.808 197.327C304.443 209.139 305.812 221.358 303.594 233.054C299.752 253.313 282.993 268.738 262.521 269.936C251.778 270.565 242.832 267.391 238.383 265.62C233.935 263.849 235.664 260.239 238.752 261.271C244.072 263.049 253.845 265.697 262.591 264.554C283.205 261.858 300.685 251.551 298.889 207.158C298.635 200.863 297.85 194.565 297.681 188.269C297.519 182.115 297.579 175.958 297.308 169.807L297.218 167.708C297.112 165.256 296.999 162.793 296.815 160.338C296.593 159.387 296.41 158.422 296.139 157.488C295.403 154.948 294.442 152.479 293.248 150.122C292.984 150.323 292.688 150.467 292.368 150.524C289.935 150.96 287.653 150.837 285.374 149.823C284.311 149.354 283.374 148.731 282.501 147.959C282.085 147.596 281.807 147.244 281.589 146.878C280.487 146.895 279.385 146.564 278.694 145.772C277.907 144.868 277.776 143.935 278.085 143.071L278.117 142.985L278.039 142.957C277.11 145.363 275.258 147.48 273.226 148.91C270.014 151.179 265.997 151.834 262.144 151.894C257.89 151.957 253.404 151.302 249.207 150.633C248.098 150.457 246.995 150.256 245.914 149.985C245.872 150.027 245.83 150.076 245.784 150.119C242.182 153.567 237.115 154.455 232.544 152.486C229.903 151.348 227.688 149.516 225.73 147.417C225.702 148.516 225.646 149.615 225.551 150.703L225.511 151.136C225.316 153.163 224.941 155.313 223.41 156.776C220.934 159.147 217.342 158.196 214.487 156.653C214.49 156.727 214.49 156.805 214.49 156.882C215.261 159.503 216.036 162.127 216.811 164.752L216.977 165.311C217.541 167.174 218.159 169.04 218.328 170.991C218.652 174.718 216.173 178.399 212.032 177.148C209.86 176.495 208.12 174.668 206.45 173.204L205.398 172.294C208.12 181.196 210.007 190.415 210.183 199.704C210.194 200.208 209.761 200.588 209.282 200.606C208.162 200.652 206.958 200.43 205.831 199.982C205.768 199.979 205.704 199.975 205.637 199.965C203.715 199.687 201.929 198.993 200.355 197.967C200.718 199.119 200.88 200.356 200.785 201.649C200.76 201.962 200.271 202.071 200.201 201.726C199.292 197.256 194.063 193.878 189.556 194.734C184.717 195.653 181.154 199.817 180.28 204.555C179.344 209.645 181.136 215.532 184.457 219.459C185.985 221.27 187.996 222.781 190.383 223.162C191.475 223.334 192.609 223.275 193.668 222.965C194.119 222.831 194.542 222.644 194.971 222.468C195.598 222.214 196.331 222.175 196.922 221.908C198.264 221.305 199.612 222.542 198.933 223.919C198.341 225.12 197.81 225.931 196.827 226.551C197.623 227.523 198.345 228.876 198.612 229.238C199.979 231.084 201.366 232.828 202.923 234.516C204.507 236.228 206.236 237.792 208.064 239.239L208.832 239.847C210.592 241.243 212.125 242.538 213.367 244.541C214.346 246.123 213.078 248.268 211.243 248.243C205.504 248.162 201.331 243.118 198.359 238.711C197.936 238.08 197.538 237.415 197.169 236.731C197.035 236.946 196.887 237.147 196.721 237.33L197.049 238.211C198.021 240.804 193.834 242.498 192.619 240.078C191.735 238.324 190.711 236.654 189.57 235.076C188.897 234.981 188.239 234.572 187.872 234.043C186.946 232.701 185.907 231.345 185.031 229.915C184.545 229.453 184.045 229.01 183.534 228.576C183.386 228.707 183.235 228.837 183.09 228.974C182.45 230.436 181.657 231.771 180.675 233.029L180.464 233.297C178.582 235.67 176.13 238.099 173.097 238.679C172.171 238.855 171.28 237.704 172.1 236.967C174.224 235.058 176.734 233.758 178.692 231.627C179.657 230.577 180.542 229.421 181.304 228.209L181.478 227.928C181.604 227.72 181.735 227.512 181.868 227.301C180.985 226.699 180.101 226.093 179.217 225.487C176.784 227.566 173.615 228.518 170.924 230.24L170.657 230.415C168.223 232.043 165.66 228.442 167.611 226.466C169.761 224.296 171.556 221.708 173.461 219.295C172.565 217.645 172.142 215.693 171.983 213.72C171.92 213.162 171.871 212.603 171.822 212.044C170.456 212.065 169.083 211.597 167.921 210.79L167.48 210.477C166.068 210.927 164.586 211.146 163.167 211.107C159.829 211.008 158.462 207.193 160.55 204.78C162.681 202.314 166.41 201.775 169.364 202.973C169.459 202.924 169.558 202.871 169.653 202.818C169.512 202.17 169.543 201.582 169.704 201.066L169.657 200.751C169.008 199.753 168.58 198.615 168.418 197.412C168.29 196.459 168.316 195.515 168.537 194.574C168.61 194.26 168.762 193.936 168.879 193.609C168.639 193.003 168.498 192.376 168.454 191.745C168.387 191.665 168.32 191.583 168.256 191.494C166.791 189.435 167.087 186.954 168.482 185.288C168.488 185.182 168.498 185.076 168.512 184.971C168.431 184.787 168.356 184.601 168.287 184.413C166.924 183.038 165.924 181.383 166.11 179.331C166.22 178.124 166.716 177.038 167.466 176.226C167.333 175.832 167.32 175.376 167.481 174.995C166.284 171.809 166.435 167.971 167.297 164.407C167.107 163.864 167.008 163.276 167.03 162.652C167.128 160.007 169.417 157.576 172.128 157.608C172.455 157.611 172.761 157.653 173.054 157.716L173.058 157.653C173.162 156.859 173.38 156.125 173.699 155.466C173.542 155.41 173.397 155.328 173.27 155.22C171.533 156.147 169.694 156.856 167.767 157.339C166.349 157.694 164.897 156.082 165.778 154.752C166.187 154.134 166.638 153.58 167.124 153.073C166.433 153.077 165.732 153.124 165.022 153.215C163.748 153.381 162.325 152.51 161.498 151.334C160.469 152.334 159.438 153.331 158.406 154.328C155.793 156.861 151.846 154.997 151.434 151.658C150.655 151.45 149.93 151.098 149.293 150.594C145.173 152.384 140.739 153.366 136.207 153.553C132.954 153.687 131.052 149.897 132.573 147.219C133.595 145.423 134.862 143.809 136.324 142.407C134.056 143.101 131.714 143.602 129.323 143.922C128.031 144.095 126.203 143.024 125.686 141.837C123.707 137.271 123.876 132.512 126.154 128.07C126.242 127.894 126.341 127.725 126.436 127.556C126.672 126.967 126.929 126.386 127.207 125.815C124.404 122.892 124.161 118.545 125.672 114.906C125.066 113.923 124.834 112.739 125.246 111.668C126.418 108.586 128.108 105.739 130.242 103.295C130.038 102.9 129.858 102.481 129.707 102.03C128.506 98.3841 129.897 93.9842 132.704 91.4443C134.468 89.845 136.496 88.8869 138.662 88.2739C139.574 86.6605 140.746 85.2056 142.113 83.9797C142.166 83.8635 142.218 83.7472 142.278 83.631C144.405 79.6221 148.279 77.4733 152.43 76.9766C152.592 75.409 153.649 73.9118 155.184 73.4257C155.606 72.0695 156.237 70.7731 157.103 69.5965C158.466 67.7436 160.73 66.8699 162.864 68.0853C164.033 68.7511 165.153 69.5155 166.202 70.3609C166.673 70.1398 167.208 69.9967 167.811 69.9511L167.963 69.9417L171.435 69.7656C172.889 69.1209 174.34 68.4446 175.794 67.7858C176.667 67.0637 177.643 66.4613 178.706 66.0139C179.911 65.5102 181.143 65.2248 182.379 65.1297C183.383 64.8021 184.393 64.5132 185.422 64.2878C187.837 63.7594 190.365 63.4635 192.873 63.4881C192.924 62.839 192.949 62.182 192.945 61.5173L192.94 61.1843C192.883 59.0531 194.584 57.3516 196.588 57.0486ZM194.154 227.565C193.809 227.639 193.461 227.699 193.112 227.741C193.218 228.002 193.323 228.263 193.425 228.523C193.707 228.682 193.992 228.833 194.278 228.974C194.193 228.495 194.144 228.013 194.154 227.565ZM176.063 222.187L175.829 222.618C175.791 222.689 175.753 222.759 175.717 222.827C176.213 222.788 176.713 222.799 177.206 222.855L177.205 222.803C177.141 222.781 177.078 222.762 177.018 222.732C176.677 222.569 176.361 222.385 176.063 222.187ZM185.841 202.512C188.956 202.693 191.595 203.171 194.429 204.535L194.672 204.654C197.176 205.897 201.317 208.194 200.968 211.488C200.87 212.425 200.19 213.411 199.119 213.337C196.186 213.136 194.51 210.177 192.524 208.331C190.52 206.471 188.059 204.558 185.633 203.28C185.29 203.1 185.425 202.53 185.798 202.511L185.841 202.512ZM171.713 159.116C170.966 159.14 171.216 159.866 171.6 159.26C171.632 159.211 171.671 159.161 171.713 159.116ZM212.01 110.671C204.94 110.857 197.824 115.033 192.528 119.254C187.92 122.926 183.941 127.295 180.418 132.003C179.512 134.347 178.733 136.741 178.076 139.152C177.643 140.745 177.372 142.354 177.009 143.961L176.896 144.453C176.611 144.986 176.4 145.559 176.246 146.151C176.888 146.795 177.72 147.256 178.637 147.475C178.933 147.546 179.178 147.698 179.372 147.9C180.11 146.668 180.755 145.367 181.131 143.989L181.145 143.925C182.563 141.6 184.104 139.348 185.756 137.173C190.313 131.166 195.331 125.692 201.363 121.137C205.937 117.685 211.05 114.98 216.487 113.222C215.156 112.148 213.645 111.298 212.01 110.671Z" fill="black"/>
<path fill-rule="evenodd" clip-rule="evenodd" d="M267.131 241.564C264.764 240.598 262.651 238.987 261.107 236.928C260.57 236.213 260.431 235.457 260.544 234.766C260.671 233.989 261.13 233.284 261.757 232.812C262.386 232.338 263.172 232.104 263.933 232.223C264.593 232.327 265.251 232.689 265.771 233.439L265.88 233.589C266.798 234.832 267.994 235.851 269.358 236.508C270.671 237.142 272.141 237.437 273.661 237.265C276.557 236.938 278.553 235.371 280.674 233.244C280.937 232.975 281.201 232.698 281.465 232.417C281.632 232.162 281.864 231.998 282.121 231.911C282.407 231.816 282.73 231.821 283.026 231.925C283.311 232.024 283.566 232.213 283.738 232.465C283.9 232.703 283.992 232.999 283.963 233.338C283.768 235.543 282.616 237.511 280.979 239.056C279.161 240.772 276.752 241.959 274.483 242.375C271.984 242.834 269.437 242.506 267.131 241.564ZM275.662 207.549C278.321 209.166 282.373 212.937 279.512 216.945C276.145 220.48 271.297 216.427 268.908 214.594C266.693 213.174 264.204 216.827 266.259 218.486C283.522 231.272 290.528 207.972 277.007 205.648C275.518 205.392 274.965 207.049 275.662 207.549ZM244.727 192.676C245.021 189.028 250.575 188.2 251.127 191.81C251.622 195.043 251.04 198.014 249.583 200.926C248.192 203.707 244.695 202.41 244.431 199.877C244.076 196.482 244.544 194.946 244.727 192.676ZM287.005 191.061C287.78 190.047 288.898 189.354 290.237 189.745C294.422 190.969 293.189 196.913 291.719 199.806C290.92 201.377 288.339 201.775 287.172 200.392C285.271 198.136 284.36 193.631 286.777 191.409C286.843 191.294 286.916 191.178 287.005 191.061ZM249.524 176.713L250.186 176.597C252.231 176.243 254.774 175.903 256.22 177.548C256.988 178.42 257.252 180.041 256.22 180.876C254.406 182.345 252.4 181.776 250.226 181.9C248.435 182.003 246.713 182.3 244.987 182.793C241.201 183.876 238.116 185.852 234.882 188.022C234.458 188.307 234.025 187.764 234.227 187.367C236.094 183.709 239.711 180.705 243.335 178.873C245.269 177.896 247.385 177.085 249.524 176.713ZM283.19 175.074L283.696 175.178C289.203 176.329 296.357 178.629 298.964 184.04C299.063 184.805 298.959 184.969 298.873 185.076L298.845 185.112C298.774 185.203 298.718 185.33 298.387 185.434C298.295 185.412 298.202 185.389 298.108 185.364C296.913 185.051 295.967 184.619 295.052 184.171L294.059 183.682C292.907 183.117 291.745 182.572 290.514 182.171C287.886 181.313 285.184 180.709 282.439 180.387C281.844 180.317 281.271 180.116 280.819 179.772C280.39 179.445 280.063 178.993 279.913 178.391C279.72 177.613 279.775 177.024 280.193 176.322C280.506 175.795 280.956 175.429 281.471 175.219C281.997 175.006 282.595 174.955 283.19 175.074Z" fill="black"/>
<path fill-rule="evenodd" clip-rule="evenodd" d="M244.291 243.771C247.142 237.09 253.364 232.179 260.528 230.384C265.789 229.069 271.31 229.111 276.673 229.633C279.483 229.904 282.497 230.127 285.145 231.171C287.406 232.063 289.249 233.748 290.634 235.727C292.284 238.072 293.405 240.755 294.193 243.506C294.305 243.897 294.41 244.291 294.508 244.687C294.166 246.762 293.438 248.529 291.517 249.834C289.642 251.108 287.405 251.629 285.174 251.814C284.956 251.709 284.744 251.601 284.55 251.49C281.075 249.5 278.629 244.796 274.242 245.433C270.327 246.001 267.75 250.929 265.422 253.818C257.949 254.689 250.482 252.443 244.402 248.168C244.093 246.705 244.075 245.23 244.291 243.771ZM299.587 238.703C298.989 237.025 298.237 235.399 297.344 233.868C294.394 228.804 289.864 224.77 284.487 222.463C271.767 217.015 255.309 220.856 245.037 229.792C241.528 232.846 237.98 237.335 236.907 242.163C236.587 242.227 236.285 242.394 236.036 242.629C228.614 237.954 220.971 233.457 214.991 226.977C210.648 222.27 207.627 216.698 205.777 210.576C205.626 210.072 204.814 210.146 204.838 210.703C204.845 210.834 204.852 210.964 204.859 211.094C204.782 210.854 204.416 210.978 204.388 211.211C203.393 218.648 202.148 226.533 203.295 234.009C203.98 238.47 206.006 241.736 208.714 245.262C211.615 249.043 214.9 252.558 218.258 255.93C220.389 258.07 222.615 260.539 225.224 262.108C228.259 263.931 231.702 265.318 234.941 266.724C238.236 268.16 241.58 269.485 244.988 270.635C251.8 272.941 258.84 274.535 266.004 275.234C271.739 275.791 278.294 276.398 283.791 274.239C288.004 272.585 291.404 269.595 294.102 265.998C297.038 262.08 299.359 257.617 300.643 252.911C301.976 248.023 299.868 239.491 299.587 238.703Z" fill="black"/>
</g>
</svg>
